<svg id="Grupo_374" data-name="Grupo 374" xmlns="http://www.w3.org/2000/svg" xmlns:xlink="http://www.w3.org/1999/xlink" width="1099.413" height="513.856" viewBox="0 0 1099.413 513.856">
  <defs>
    <clipPath id="clip-path">
      <rect id="Retângulo_85" data-name="Retângulo 85" width="1099.413" height="513.856" fill="none"/>
    </clipPath>
    <clipPath id="clip-path-3">
      <rect id="Retângulo_61" data-name="Retângulo 61" width="70.463" height="109.721" fill="none"/>
    </clipPath>
    <clipPath id="clip-path-4">
      <path id="Caminho_1388" data-name="Caminho 1388" d="M266.886,1.392a6.629,6.629,0,0,0-3.9.98c-2.563,1.947-6.4,25.2-6.448,40.647v.665c.015,4.883.431,8.916,1.408,11.143,3.5,8.01,31.919,38.753,41.091,47.906,4.1,4.091,7.347-1.266,8.709-3.472,5.019-8.155,10.472-29.855,10.6-49.163V48.7c-.071-10.08-1.649-19.393-5.567-25.632C308.057,15.536,279.218,1.5,267.163,1.392Z" transform="translate(-256.535 -1.392)" fill="none"/>
    </clipPath>
    <linearGradient id="linear-gradient" x1="-12.786" y1="4.832" x2="-12.736" y2="4.832" gradientUnits="objectBoundingBox">
      <stop offset="0" stop-color="#24692c"/>
      <stop offset="1" stop-color="#4e9e23"/>
    </linearGradient>
    <clipPath id="clip-path-5">
      <rect id="Retângulo_63" data-name="Retângulo 63" width="77.715" height="96.061" fill="none"/>
    </clipPath>
    <clipPath id="clip-path-6">
      <path id="Caminho_1389" data-name="Caminho 1389" d="M265.007,3.573a2.043,2.043,0,0,0-.21.018c-7.166,1.309-14.649,27.742-14.791,41.914v.8a17.63,17.63,0,0,0,.841,5.884c7.822,19.988,49.957,42.579,65.028,45.127,2.637.444,9.011,1.562,8.21-3.965-1.772-12.375-9.206-52.206-13.549-59.81C305.6,24.9,270.435,3.672,265.084,3.573Z" transform="translate(-250.007 -3.573)" fill="none"/>
    </clipPath>
    <linearGradient id="linear-gradient-2" x1="-10.286" y1="5.276" x2="-10.245" y2="5.276" xlink:href="#linear-gradient"/>
    <clipPath id="clip-path-7">
      <rect id="Retângulo_65" data-name="Retângulo 65" width="69.686" height="108.674" fill="none"/>
    </clipPath>
    <clipPath id="clip-path-8">
      <path id="Caminho_1390" data-name="Caminho 1390" d="M283.494,38.256c-2.621.074-4.528,3.481-5.474,5.145-7.3,12.859-14.575,58.257-2.52,76.3,5.668,8.5,43.294,24.664,50.01,19.187,2.292-1.867,5.068-22,5.117-37.234v-.8c-.019-6.4-.545-11.845-1.82-14.544-3.722-7.9-32.878-37.773-42.268-46.649a4.407,4.407,0,0,0-2.865-1.408Z" transform="translate(-269.071 -38.256)" fill="none"/>
    </clipPath>
    <linearGradient id="linear-gradient-3" x1="-12.255" y1="3.731" x2="-12.209" y2="3.731" xlink:href="#linear-gradient"/>
    <clipPath id="clip-path-9">
      <rect id="Retângulo_67" data-name="Retângulo 67" width="81.424" height="96.459" fill="none"/>
    </clipPath>
    <clipPath id="clip-path-10">
      <path id="Caminho_1391" data-name="Caminho 1391" d="M276.15,38.256c-2.4.012-4.843.659-4.876,3.466v.1a6.125,6.125,0,0,0,.1,1.038c2.212,12.6,11.134,53.1,15.826,60.731,5.3,8.632,41.633,29.048,47.44,29.218h.136a1.454,1.454,0,0,0,.252-.028c8.734-1.87,16.766-40.635,12.7-50.13-8.66-20.188-52.558-41.966-68.078-44.1a25.737,25.737,0,0,0-3.4-.3Z" transform="translate(-271.274 -38.256)" fill="none"/>
    </clipPath>
    <linearGradient id="linear-gradient-4" x1="-10.379" y1="4.188" x2="-10.34" y2="4.188" xlink:href="#linear-gradient"/>
    <clipPath id="clip-path-11">
      <rect id="Retângulo_69" data-name="Retângulo 69" width="111.551" height="72.277" fill="none"/>
    </clipPath>
    <clipPath id="clip-path-12">
      <path id="Caminho_1392" data-name="Caminho 1392" d="M332.911,20.939a20.837,20.837,0,0,0-6.587.826c-8.207,3.019-40.654,29.926-50.355,38.669a4.323,4.323,0,0,0-1.688,3.176v.031c.015,2.6,3.1,4.818,4.618,5.927,8.7,6.328,34.045,14.359,54.729,14.51h1.177c7.7-.059,14.674-1.251,19.813-4.088C362.568,75.6,378.82,46.1,379.109,34.2v-.622a5.929,5.929,0,0,0-.749-3.028c-1.98-3.065-30.1-9.538-44.97-9.609Z" transform="translate(-274.281 -20.939)" fill="none"/>
    </clipPath>
    <linearGradient id="linear-gradient-5" x1="-8.061" y1="7.118" x2="-8.031" y2="7.118" xlink:href="#linear-gradient"/>
    <clipPath id="clip-path-13">
      <rect id="Retângulo_71" data-name="Retângulo 71" width="101.316" height="75.17" fill="none"/>
    </clipPath>
    <clipPath id="clip-path-14">
      <path id="Caminho_1393" data-name="Caminho 1393" d="M325.067,14.556c-20.838,6.6-46.547,47.884-50.117,63.023a20.594,20.594,0,0,0-.668,4.378v.132c.015,2.116.746,4.039,3.462,4.113h.348c.117,0,.238-.009.363-.018,12.7-.964,53.691-5.841,61.7-9.735,9.291-4.516,33.937-40.114,33.429-44.455-.921-7.831-30.737-17.948-44.267-17.948a14.565,14.565,0,0,0-4.255.511" transform="translate(-274.281 -14.045)" fill="none"/>
    </clipPath>
    <linearGradient id="linear-gradient-6" x1="-8.465" y1="6.521" x2="-8.435" y2="6.521" xlink:href="#linear-gradient"/>
    <clipPath id="clip-path-15">
      <rect id="Retângulo_73" data-name="Retângulo 73" width="112.265" height="71.381" fill="none"/>
    </clipPath>
    <clipPath id="clip-path-16">
      <path id="Caminho_1394" data-name="Caminho 1394" d="M261.953,33.938c-8.17,4.119-25.579,33.337-25.835,44.819v.5a5.488,5.488,0,0,0,.657,2.733c1.95,3.192,31.679,10.9,46.1,11h.579a17.567,17.567,0,0,0,5.077-.613c8.294-2.711,41.507-28.217,51.464-36.528,4.449-3.712-.588-7.532-2.668-9.125-8.931-6.867-36.19-16.2-57.376-16.2-6.934,0-13.216,1-17.994,3.413" transform="translate(-236.118 -30.525)" fill="none"/>
    </clipPath>
    <linearGradient id="linear-gradient-7" x1="-6.715" y1="6.719" x2="-6.687" y2="6.719" xlink:href="#linear-gradient"/>
    <clipPath id="clip-path-17">
      <rect id="Retângulo_75" data-name="Retângulo 75" width="100.873" height="74.569" fill="none"/>
    </clipPath>
    <clipPath id="clip-path-18">
      <path id="Caminho_1395" data-name="Caminho 1395" d="M332.774,35.294c-12.486.567-52.838,4.205-60.811,7.917-9.15,4.251-33.937,38.981-34.128,44.042v.111l0,.046c.678,8.093,30.225,19.523,43.294,19.732h.711a11.922,11.922,0,0,0,3.059-.391c20.632-6.047,47.086-47.271,51.042-62.582.675-2.622,2.329-8.885-2.841-8.885-.108,0-.215,0-.329.009" transform="translate(-237.835 -35.285)" fill="none"/>
    </clipPath>
    <linearGradient id="linear-gradient-8" x1="-7.295" y1="5.639" x2="-7.264" y2="5.639" xlink:href="#linear-gradient"/>
    <clipPath id="clip-path-19">
      <rect id="Retângulo_77" data-name="Retângulo 77" width="53.494" height="99.748" fill="none"/>
    </clipPath>
    <clipPath id="clip-path-20">
      <rect id="Retângulo_76" data-name="Retângulo 76" width="53.488" height="99.748" fill="none"/>
    </clipPath>
    <clipPath id="clip-path-21">
      <rect id="Retângulo_79" data-name="Retângulo 79" width="96.668" height="58.023" fill="none"/>
    </clipPath>
    <clipPath id="clip-path-23">
      <rect id="Retângulo_81" data-name="Retângulo 81" width="97.752" height="54.696" fill="none"/>
    </clipPath>
    <clipPath id="clip-path-25">
      <rect id="Retângulo_83" data-name="Retângulo 83" width="51.566" height="100.581" fill="none"/>
    </clipPath>
    <clipPath id="clip-path-26">
      <rect id="Retângulo_82" data-name="Retângulo 82" width="51.566" height="100.58" fill="none"/>
    </clipPath>
  </defs>
  <g id="Grupo_236" data-name="Grupo 236" clip-path="url(#clip-path)">
    <g id="Grupo_235" data-name="Grupo 235">
      <g id="Grupo_234" data-name="Grupo 234" clip-path="url(#clip-path)">
        <path id="Caminho_1387" data-name="Caminho 1387" d="M457.767,71.217c-.65-1.007-4.144-2.384-9.058-3.783,2.724-4.492,4.424-7.942,4.289-9.113-1.041-8.823-38.728-20.539-48.527-17.437-14.19,4.495-30.641,25.09-40.823,42.551a109.6,109.6,0,0,0-8.928,10.656c-.287.391-.542.8-.82,1.2.185-.6.37-1.192.542-1.793A120.51,120.51,0,0,0,357.6,78.752c.12-.832.216-1.673.32-2.511,3.771-18.238,4.809-41.288-2.659-53.177C349.824,14.4,312.415-2.9,305.471,2.372c-.931.705-2.027,4.221-3.05,9.134-4.335-2.237-7.622-3.577-8.722-3.376-8.58,1.568-17.622,39.2-13.947,48.6,6.174,15.78,33.728,33.177,52.477,41.057.992.977,1.954,1.984,2.989,2.917a49.48,49.48,0,0,0,5.958,4.652c.518.317,1.041.628,1.581.918-.844-.293-1.688-.591-2.548-.841-2.4-.705-4.837-1.279-7.289-1.793-.878-.179-1.768-.3-2.652-.465-17.123-8.367-51.748-16.984-68.31-8.62-9.125,4.6-29.782,40.518-25.182,48.053.678,1.106,4.689,2.748,10.232,4.433-3.445,5.327-5.7,9.544-5.592,10.89.752,9.02,37.363,22.181,47.065,19.341,14.729-4.319,32.425-26.571,42.788-44.517a111.069,111.069,0,0,0,9.976-10.666c1.075-1.337,2.076-2.742,3.025-4.177-.622,1.685-1.2,3.373-1.738,5.083a120.785,120.785,0,0,0-3.549,14.575c-1.239,7.187-1.963,14.64-1.128,21.923-.81,14.205.61,28.518,6.217,36.913,5.662,8.5,43.291,24.664,50.007,19.19.961-.789,2.012-4.815,2.908-10.342,5.57,2.779,9.908,4.5,11.2,4.23,8.737-1.87,16.771-40.638,12.7-50.13-7.147-16.67-38.315-34.415-57.7-41.3-.5-.514-.967-1.069-1.485-1.574a52.915,52.915,0,0,0-4.661-4.039,4.639,4.639,0,0,0,.826.062c.952-.071,2.073-.166,3.318-.28.17.034.336.065.508.1,15.481,8.472,54.729,18.059,72.338,8.33,8.99-4.954,28.568-41.978,23.744-49.443M356.485,95.361c.77-1.078,1.627-2.1,2.446-3.152a73.517,73.517,0,0,0-3.851,9.208,3.731,3.731,0,0,0-1.1,4.267,16.557,16.557,0,0,0-.284,2.243c-.049-.018-.1-.031-.154-.049-.564-.191-1.013-.434-1.528-.641a2.528,2.528,0,0,1-.576-.407,3.537,3.537,0,0,1,.037-2.163,17.823,17.823,0,0,1,1.2-3.127,48.2,48.2,0,0,1,3.8-6.18m-9.452,13.287a3.715,3.715,0,0,0-1.457-1.242,4.366,4.366,0,0,0,2.825-.129,3.18,3.18,0,0,0,.693-.533,3.731,3.731,0,0,0,.376,1.235,3.632,3.632,0,0,0,1.466,1.251,3.732,3.732,0,0,0-2.067.2,3.859,3.859,0,0,0-1.464,1.454,3.838,3.838,0,0,0-.373-2.24m1.075-6.417c.32.012.632.009.949-.006-.145.323-.265.672-.416.986-.24.548-.521.967-.773,1.46a2.693,2.693,0,0,1-.456.551,3.279,3.279,0,0,1-2.08-.237,13.614,13.614,0,0,1-2.286-1.124c1.993.974,3.734-.151,5.062-1.63m5.909,8.152.006.028c-.034-.022-.08-.04-.12-.062.04.012.08.022.114.034m-16.383-10.5c.555.194,1.087.373,1.611.542.841.86,1.617,1.651,2.276,2.307a5.889,5.889,0,0,0,1.362,1.035c-.166-.1-.339-.188-.508-.29a43.944,43.944,0,0,1-4.742-3.6m1.91,20.847c-1.488,1.876-3.078,3.691-4.717,5.462a78.421,78.421,0,0,0,3.777-8.583c.48-.391.983-.8,1.389-1.14,2.763-2.307,1.864-4.652.293-6.482a5.869,5.869,0,0,0-.373-2.3c1.041.317,2.073.653,3.056,1.032.564.2,1,.45,1.507.665a2.4,2.4,0,0,1,.579.4,3.1,3.1,0,0,1-.114,2.024,16.136,16.136,0,0,1-1.334,3.016,46.725,46.725,0,0,1-4.063,5.9m5.07,2.914c.136-.416.305-.813.441-1.226.041.194.08.4.117.6-.53,1.238-1.053,2.643-1.562,4.165.336-1.18.638-2.372,1-3.54m9.206-8.216a3.318,3.318,0,0,0-2.471-.351,14.648,14.648,0,0,0-3.506-.012c.237-.527.453-1.075.709-1.58.249-.545.542-.952.8-1.439a2.71,2.71,0,0,1,.465-.539,3.1,3.1,0,0,1,2,.311,15.818,15.818,0,0,1,2.874,1.62,40.714,40.714,0,0,1,3.838,3.118,46.292,46.292,0,0,0-4.713-1.128" transform="translate(491.299 2.897)" fill="#fff"/>
        <g id="Grupo_178" data-name="Grupo 178" transform="translate(787.663)" opacity="0.68" style="mix-blend-mode: multiply;isolation: isolate">
          <g id="Grupo_177" data-name="Grupo 177">
            <g id="Grupo_176" data-name="Grupo 176" clip-path="url(#clip-path-3)">
              <g id="Grupo_175" data-name="Grupo 175" transform="translate(2.656 4.288)">
                <g id="Grupo_174" data-name="Grupo 174" clip-path="url(#clip-path-4)">
                  <rect id="Retângulo_60" data-name="Retângulo 60" width="61.812" height="105.432" transform="translate(0 0)" fill="url(#linear-gradient)"/>
                </g>
              </g>
            </g>
          </g>
        </g>
        <g id="Grupo_183" data-name="Grupo 183" transform="translate(767.373 10.256)" opacity="0.68" style="mix-blend-mode: multiply;isolation: isolate">
          <g id="Grupo_182" data-name="Grupo 182">
            <g id="Grupo_181" data-name="Grupo 181" clip-path="url(#clip-path-5)">
              <g id="Grupo_180" data-name="Grupo 180" transform="translate(2.834 0.752)">
                <g id="Grupo_179" data-name="Grupo 179" clip-path="url(#clip-path-6)">
                  <rect id="Retângulo_62" data-name="Retângulo 62" width="74.881" height="95.309" transform="translate(0 0)" fill="url(#linear-gradient-2)"/>
                </g>
              </g>
            </g>
          </g>
        </g>
        <g id="Grupo_188" data-name="Grupo 188" transform="translate(823.313 115.297)" opacity="0.68" style="mix-blend-mode: multiply;isolation: isolate">
          <g id="Grupo_187" data-name="Grupo 187">
            <g id="Grupo_186" data-name="Grupo 186" clip-path="url(#clip-path-7)">
              <g id="Grupo_185" data-name="Grupo 185" transform="translate(5.627 2.56)">
                <g id="Grupo_184" data-name="Grupo 184" clip-path="url(#clip-path-8)">
                  <rect id="Retângulo_64" data-name="Retângulo 64" width="67.182" height="106.113" transform="translate(-5.627 0)" fill="url(#linear-gradient-3)"/>
                </g>
              </g>
            </g>
          </g>
        </g>
        <g id="Grupo_193" data-name="Grupo 193" transform="translate(834.826 116.843)" opacity="0.68" style="mix-blend-mode: multiply;isolation: isolate">
          <g id="Grupo_192" data-name="Grupo 192">
            <g id="Grupo_191" data-name="Grupo 191" clip-path="url(#clip-path-9)">
              <g id="Grupo_190" data-name="Grupo 190" transform="translate(0.9 1.014)">
                <g id="Grupo_189" data-name="Grupo 189" clip-path="url(#clip-path-10)">
                  <rect id="Retângulo_66" data-name="Retângulo 66" width="80.524" height="94.554" transform="translate(0 0)" fill="url(#linear-gradient-4)"/>
                </g>
              </g>
            </g>
          </g>
        </g>
        <g id="Grupo_198" data-name="Grupo 198" transform="translate(842.34 61.821)" opacity="0.68" style="mix-blend-mode: multiply;isolation: isolate">
          <g id="Grupo_197" data-name="Grupo 197">
            <g id="Grupo_196" data-name="Grupo 196" clip-path="url(#clip-path-11)">
              <g id="Grupo_195" data-name="Grupo 195" transform="translate(2.649 2.686)">
                <g id="Grupo_194" data-name="Grupo 194" clip-path="url(#clip-path-12)">
                  <rect id="Retângulo_68" data-name="Retângulo 68" width="104.828" height="63.14" transform="translate(0 0)" fill="url(#linear-gradient-5)"/>
                </g>
              </g>
            </g>
          </g>
        </g>
        <g id="Grupo_203" data-name="Grupo 203" transform="translate(843.489 40.678)" opacity="0.68" style="mix-blend-mode: multiply;isolation: isolate">
          <g id="Grupo_202" data-name="Grupo 202">
            <g id="Grupo_201" data-name="Grupo 201" clip-path="url(#clip-path-13)">
              <g id="Grupo_200" data-name="Grupo 200" transform="translate(1.5 2.591)">
                <g id="Grupo_199" data-name="Grupo 199" clip-path="url(#clip-path-14)">
                  <rect id="Retângulo_70" data-name="Retângulo 70" width="99.816" height="72.157" transform="translate(0 0)" fill="url(#linear-gradient-6)"/>
                </g>
              </g>
            </g>
          </g>
        </g>
        <g id="Grupo_208" data-name="Grupo 208" transform="translate(723.473 87.669)" opacity="0.68" style="mix-blend-mode: multiply;isolation: isolate">
          <g id="Grupo_207" data-name="Grupo 207">
            <g id="Grupo_206" data-name="Grupo 206" clip-path="url(#clip-path-15)">
              <g id="Grupo_205" data-name="Grupo 205" transform="translate(3.946 6.371)">
                <g id="Grupo_204" data-name="Grupo 204" clip-path="url(#clip-path-16)">
                  <rect id="Retângulo_72" data-name="Retângulo 72" width="108.322" height="62.471" transform="translate(0 0)" fill="url(#linear-gradient-7)"/>
                </g>
              </g>
            </g>
          </g>
        </g>
        <g id="Grupo_213" data-name="Grupo 213" transform="translate(732.345 108.442)" opacity="0.68" style="mix-blend-mode: multiply;isolation: isolate">
          <g id="Grupo_212" data-name="Grupo 212">
            <g id="Grupo_211" data-name="Grupo 211" clip-path="url(#clip-path-17)">
              <g id="Grupo_210" data-name="Grupo 210" transform="translate(0.364 0.262)">
                <g id="Grupo_209" data-name="Grupo 209" clip-path="url(#clip-path-18)">
                  <rect id="Retângulo_74" data-name="Retângulo 74" width="100.438" height="71.858" transform="translate(0 0)" fill="url(#linear-gradient-8)"/>
                </g>
              </g>
            </g>
          </g>
        </g>
        <g id="Grupo_218" data-name="Grupo 218" transform="translate(796.459 10.73)" opacity="0.63">
          <g id="Grupo_217" data-name="Grupo 217">
            <g id="Grupo_216" data-name="Grupo 216" clip-path="url(#clip-path-19)">
              <g id="Grupo_215" data-name="Grupo 215" transform="translate(0.006 0)">
                <g id="Grupo_214" data-name="Grupo 214" clip-path="url(#clip-path-20)">
                  <path id="Caminho_1396" data-name="Caminho 1396" d="M269.594,3.919a9.89,9.89,0,0,0-5.7,4.4,22.237,22.237,0,0,0-2.822,6.787A55.443,55.443,0,0,0,259.73,29.85a99.811,99.811,0,0,0,5.092,29.175c.792,2.338,1.639,4.658,2.625,6.91a38.87,38.87,0,0,0,3.4,6.362,110.849,110.849,0,0,0,8.9,11.824,109.257,109.257,0,0,0,10.3,10.61,46.68,46.68,0,0,0,5.7,4.4,16.785,16.785,0,0,0,2.958,1.51,3.291,3.291,0,0,0,2.079.234,2.608,2.608,0,0,0,.456-.551c.253-.493.533-.909.77-1.46.509-1.057.968-2.166,1.4-3.312.868-2.274,1.614-4.627,2.307-6.993a118.338,118.338,0,0,0,3.2-14.461c1.482-9.757,1.833-19.72-1.13-29.021a79.63,79.63,0,0,0-14.1-25.844,60.082,60.082,0,0,0-10.477-10.49,29.641,29.641,0,0,0-6.377-3.749,13.1,13.1,0,0,0-7.233-1.069l-.049-.225a13.448,13.448,0,0,1,7.447.853,29.992,29.992,0,0,1,6.626,3.6,60.857,60.857,0,0,1,10.985,10.3,80.921,80.921,0,0,1,14.871,26.069c3.324,9.6,2.908,19.988,1.5,29.883a120.335,120.335,0,0,1-3.164,14.744c-.687,2.421-1.435,4.824-2.314,7.184-.434,1.183-.909,2.351-1.438,3.5-.583,1.078-1.032,2.415-2.286,3.1a5.176,5.176,0,0,1-3.838-.173,18.853,18.853,0,0,1-3.383-1.744,49.539,49.539,0,0,1-5.961-4.655,110.9,110.9,0,0,1-10.428-10.894,112.3,112.3,0,0,1-8.984-12.11c-2.8-4.214-4.513-9.027-6.042-13.8a100.63,100.63,0,0,1-4.606-29.708,56.5,56.5,0,0,1,1.861-14.942,22.763,22.763,0,0,1,3.121-6.858,10.238,10.238,0,0,1,6.035-4.35Z" transform="translate(-258.534 -3.482)" fill="#3a9e52"/>
                </g>
              </g>
            </g>
          </g>
        </g>
        <g id="Grupo_223" data-name="Grupo 223" transform="translate(840.322 59.48)" opacity="0.63">
          <g id="Grupo_222" data-name="Grupo 222">
            <g id="Grupo_221" data-name="Grupo 221" clip-path="url(#clip-path-21)">
              <g id="Grupo_220" data-name="Grupo 220">
                <g id="Grupo_219" data-name="Grupo 219" clip-path="url(#clip-path-21)">
                  <path id="Caminho_1397" data-name="Caminho 1397" d="M368.746,28.254a9.955,9.955,0,0,0-4.9-5.333,21.929,21.929,0,0,0-7.058-2.2,54.582,54.582,0,0,0-14.9.117,98.9,98.9,0,0,0-28.66,8.142c-2.249,1.051-4.482,2.138-6.627,3.37a40.5,40.5,0,0,0-5.983,4.116,113.31,113.31,0,0,0-10.874,10.182,109.683,109.683,0,0,0-9.517,11.436,48.544,48.544,0,0,0-3.8,6.177,17.488,17.488,0,0,0-1.2,3.13,3.538,3.538,0,0,0-.037,2.163,2.522,2.522,0,0,0,.576.407c.515.2.961.45,1.528.641,1.109.4,2.262.761,3.448,1.084,2.359.653,4.784,1.18,7.221,1.645a117.149,117.149,0,0,0,14.794,1.805c9.917.527,19.911-.173,28.891-4.177a80.261,80.261,0,0,0,24.316-16.935,61.111,61.111,0,0,0,9.35-11.63,30.315,30.315,0,0,0,3.078-6.784,13.525,13.525,0,0,0,.361-7.357l.218-.068a13.857,13.857,0,0,1-.123,7.545,30.847,30.847,0,0,1-2.905,7.012,61.887,61.887,0,0,1-9.106,12.11A81.44,81.44,0,0,1,332.378,72.58c-9.236,4.393-19.686,5.08-29.732,4.633a119.143,119.143,0,0,1-15.077-1.734c-2.489-.456-4.969-.977-7.419-1.636-1.223-.324-2.44-.69-3.638-1.118-1.133-.487-2.523-.81-3.3-2.024a5.414,5.414,0,0,1-.176-3.866,19.391,19.391,0,0,1,1.4-3.568,50.22,50.22,0,0,1,4.027-6.451,111.412,111.412,0,0,1,9.784-11.6,115.193,115.193,0,0,1,11.146-10.293,54.184,54.184,0,0,1,13.133-7.563,99.646,99.646,0,0,1,29.249-7.711,55.3,55.3,0,0,1,15.144.376,22.228,22.228,0,0,1,7.159,2.492,10.288,10.288,0,0,1,4.889,5.672Z" transform="translate(-272.766 -19.305)" fill="#3a9e52"/>
                </g>
              </g>
            </g>
          </g>
        </g>
        <g id="Grupo_228" data-name="Grupo 228" transform="translate(740.993 104.071)" opacity="0.63">
          <g id="Grupo_227" data-name="Grupo 227">
            <g id="Grupo_226" data-name="Grupo 226" clip-path="url(#clip-path-23)">
              <g id="Grupo_225" data-name="Grupo 225" transform="translate(0.003)">
                <g id="Grupo_224" data-name="Grupo 224" clip-path="url(#clip-path-23)">
                  <path id="Caminho_1398" data-name="Caminho 1398" d="M241.118,79.188a9.742,9.742,0,0,0,4.8,5.314,22.5,22.5,0,0,0,6.944,2.3,56.535,56.535,0,0,0,14.732.345,101.359,101.359,0,0,0,28.666-6.836c2.286-.912,4.535-1.895,6.719-2.994a38.673,38.673,0,0,0,6.146-3.709,109.847,109.847,0,0,0,11.263-9.473,109.312,109.312,0,0,0,9.991-10.795,46.947,46.947,0,0,0,4.06-5.9,16.026,16.026,0,0,0,1.337-3.016,3.132,3.132,0,0,0,.114-2.021,2.5,2.5,0,0,0-.582-.407c-.508-.216-.94-.465-1.506-.665-1.091-.419-2.225-.8-3.392-1.143-2.32-.7-4.7-1.279-7.1-1.8a120.612,120.612,0,0,0-14.578-2.2c-9.781-.816-19.7-.555-28.777,2.893a79.891,79.891,0,0,0-24.92,15.394,59.466,59.466,0,0,0-9.886,10.946,28.928,28.928,0,0,0-3.392,6.531,12.69,12.69,0,0,0-.634,7.237l-.219.065a13.02,13.02,0,0,1,.4-7.443,29.651,29.651,0,0,1,3.232-6.772A60.794,60.794,0,0,1,254.2,53.593a81.07,81.07,0,0,1,25.1-16.168c9.356-3.823,19.676-4.045,29.594-3.309a121.972,121.972,0,0,1,14.849,2.132c2.449.514,4.886,1.087,7.289,1.8,1.2.345,2.4.73,3.577,1.18,1.115.5,2.464.844,3.244,2.03a5.016,5.016,0,0,1,.071,3.823,18.332,18.332,0,0,1-1.553,3.453,48.721,48.721,0,0,1-4.3,6.168,110.738,110.738,0,0,1-10.262,10.946,111.488,111.488,0,0,1-11.55,9.572c-4.042,2.994-8.728,4.957-13.374,6.75a102.313,102.313,0,0,1-29.227,6.377,57.4,57.4,0,0,1-14.954-.844,23.057,23.057,0,0,1-7.033-2.594,10.057,10.057,0,0,1-4.775-5.653Z" transform="translate(-240.526 -33.781)" fill="#3a9e52"/>
                </g>
              </g>
            </g>
          </g>
        </g>
        <g id="Grupo_233" data-name="Grupo 233" transform="translate(828.782 112.062)" opacity="0.63">
          <g id="Grupo_232" data-name="Grupo 232">
            <g id="Grupo_231" data-name="Grupo 231" clip-path="url(#clip-path-25)">
              <g id="Grupo_230" data-name="Grupo 230">
                <g id="Grupo_229" data-name="Grupo 229" clip-path="url(#clip-path-26)">
                  <path id="Caminho_1399" data-name="Caminho 1399" d="M308.873,136.578a9.718,9.718,0,0,0,5.748-4.264,22.465,22.465,0,0,0,2.958-6.688A56.436,56.436,0,0,0,319.334,111,101.378,101.378,0,0,0,315.286,81.8c-.69-2.36-1.454-4.7-2.339-6.972a38.21,38.21,0,0,0-3.105-6.479,117.2,117.2,0,0,0-18.13-23.1,46.82,46.82,0,0,0-5.484-4.609,16.052,16.052,0,0,0-2.871-1.621,3.148,3.148,0,0,0-2-.311,2.789,2.789,0,0,0-.462.542c-.259.487-.554.893-.8,1.436-.524,1.041-1.008,2.138-1.464,3.266-.918,2.24-1.725,4.563-2.474,6.9a119.433,119.433,0,0,0-3.586,14.295c-1.753,9.658-2.446,19.56.117,28.922a79.9,79.9,0,0,0,12.924,26.285,59.878,59.878,0,0,0,9.95,10.894,28.962,28.962,0,0,0,6.174,4,12.646,12.646,0,0,0,7.142,1.328l.043.225a13,13,0,0,1-7.369-1.118,29.568,29.568,0,0,1-6.43-3.866A60.561,60.561,0,0,1,284.655,121.1,81,81,0,0,1,270.97,94.556c-2.908-9.68-2.135-19.976-.453-29.772a122.8,122.8,0,0,1,3.549-14.578c.749-2.388,1.553-4.76,2.489-7.083.459-1.165.955-2.317,1.516-3.444.6-1.063,1.078-2.375,2.335-3.035a4.983,4.983,0,0,1,3.808.3,17.945,17.945,0,0,1,3.29,1.876,49.156,49.156,0,0,1,5.727,4.877,119.061,119.061,0,0,1,18.327,23.679c2.594,4.313,4.1,9.162,5.438,13.962a102.266,102.266,0,0,1,3.54,29.7,57.426,57.426,0,0,1-2.276,14.806,22.937,22.937,0,0,1-3.26,6.753,10.068,10.068,0,0,1-6.084,4.208Z" transform="translate(-269.02 -36.373)" fill="#3a9e52"/>
                </g>
              </g>
            </g>
          </g>
        </g>
        <path id="Caminho_1400" data-name="Caminho 1400" d="M144.039,79.448V103.49h-9.091V82.057c0-5.93-2.927-8.857-8.7-8.857a32.943,32.943,0,0,0-9.094,1.186,19.572,19.572,0,0,1,.632,4.985V103.49H108.61V81.9c0-6.01-2.767-8.7-8.7-8.7a58.989,58.989,0,0,0-8.46.555V103.49h-9.1V66.872A74.11,74.11,0,0,1,90.9,65.609a93.827,93.827,0,0,1,10.992-.715c4.43,0,7.911.792,10.441,2.452a45.372,45.372,0,0,1,15.9-2.452c10.517,0,15.813,4.824,15.813,14.553m48.325,23.25a88.141,88.141,0,0,1-9.886,1.343c-4.35.4-8.222.635-11.624.635-9.806,0-15.736-4.51-15.736-14.553V66.084h9.171v21.9c0,5.934,2.847,8.86,8.543,8.86a78.151,78.151,0,0,0,10.357-.715V66.084h9.175ZM241.4,79.448V103.49h-9.1V82.057c0-5.376-3.4-8.857-8.54-8.857a104.217,104.217,0,0,0-10.438.635V103.49H204.23V66.718a114.657,114.657,0,0,1,21.51-1.824c9.489,0,15.66,5.7,15.66,14.553m15.9-31.79a5.992,5.992,0,0,1,6.091,6.088,6.089,6.089,0,1,1-6.091-6.088m4.587,55.832h-9.095V66.084h9.095ZM303.8,73.835a58.226,58.226,0,0,0-10.835-1.583c-8.145,0-13.207,4.982-13.207,12.335s5.142,12.1,12.5,12.1a48.663,48.663,0,0,0,11.7-1.741l1.266,7.354a41.994,41.994,0,0,1-13.525,2.375c-6.168,0-11.229-1.821-15.1-5.536s-5.853-8.543-5.853-14.63,1.978-10.912,5.853-14.473c3.876-3.635,9.094-5.459,15.5-5.459a40.458,40.458,0,0,1,12.967,1.981Zm19.3-14.871H314.16l6.011-11.941h12.178Zm.237,44.526h-9.094V66.084h9.094Zm51.245-18.9c0,5.7-1.66,10.361-5.062,13.919a17.031,17.031,0,0,1-13.047,5.379,105.132,105.132,0,0,1-12.1-.635v18.509h-9.094V66.718a125.814,125.814,0,0,1,20.484-1.824c11.784,0,18.583,7.594,18.82,19.692m-8.934.237c0-7.511-3.481-12.255-11.152-12.255a83.452,83.452,0,0,0-10.123.632V95.422a62.494,62.494,0,0,0,10.835.792c6.251,0,10.441-4.824,10.441-11.39m22.779-37.166a5.991,5.991,0,0,1,6.088,6.088,6.089,6.089,0,1,1-6.088-6.088m4.587,55.832h-9.1V66.084h9.1Zm44.92-33.534c3.876,3.718,5.773,8.543,5.773,14.554,0,6.087-1.9,11.069-5.773,14.788s-8.857,5.613-15.1,5.613-11.309-1.9-15.185-5.613-5.773-8.7-5.773-14.788c0-6.011,1.9-10.835,5.773-14.554s8.937-5.536,15.185-5.536,11.229,1.821,15.1,5.536M434.451,84.51c0-7.04-4.667-11.784-11.624-11.784-7.043,0-11.787,4.744-11.787,11.784,0,7.277,4.744,12.1,11.787,12.1,6.956,0,11.624-4.824,11.624-12.1" transform="translate(171.355 97.843)" fill="#2e1b11"/>
        <path id="Caminho_1401" data-name="Caminho 1401" d="M1097.755,205.763c-12.077-12.077-42.635,73-57.025,67.253-5.074-2.027-.37-23.925-.126-28.016.9-15,2.341-29.1,4.652-43.9,1.534-9.831,6.026-26.99.48-35.758-2.246-3.549-8.99-7.874-13.5-6.451-4.221,1.331-5.5,7.884-8.66,10.512-9.9-9.137-18.275-11.226-31.177-14.316-6.491-1.553-11.414-4.932-18.294-3.543-7.36,1.491-14.615,6.839-19.951,11.916-10.216,9.707-18.521,23.472-23.515,36.575-2.905,7.619-3.062,13.5-10.176,18.358a30.3,30.3,0,0,1-17.887,5.425c.684-15.117,1.254-30.826-4.96-44.994-5.4-12.323-22.566-20.555-31.833-7.837-13.2,18.127-6.824,51.92,10.613,64.548,8.306,6.014,5.431,8.672,2.4,17.776-3.663,10.974-7.631,21.944-13.891,31.769-18.586,29.2-23.882-13.161-26.6-28.063a452.04,452.04,0,0,1-6.7-59.055c-.5-10.191.819-28.494-9.889-34.181-6.408-3.395-20.823-3.376-26.849,2.246-8.521,7.942.86,24.55-1.51,34.926-2.03,8.885-12.93,17.908-21.1,21.3-8.266,3.423-7.388,2.178-8.1-5.357-.718-7.582-2.905-14.9-5.028-22.166-5.194-17.828-10.795-26.793-25.219-38.4-31.818-25.607-53.793,23.891-57.8,49.8-1.362,8.8-1.645,16.522-6.393,24.159-3.694,5.937-7.563,11.722-11.189,17.7-1.75,2.893-9.7,17.314-11.26,17.314-7.9,10.78-22.354,32.5-36.153,16.747-4.837-5.533-7.591-15.339-9.131-22.452-2.431-11.22-5.182-23.306-5.573-34.68-.622-18.176-3.05-43.882,20.413-45.231,5.767-.327,10.086-.3,12.545,6.081,2.372,6.165-3.266,11.319-2.267,17.129,1.451,8.518,10.579,8.306,14.741,2.289,12.388-17.905-3.531-40.613-22.5-41.815-8.065-.511-17.209-.595-24.994,1.537-8.494,2.329-22.117,8.814-27.28,15.684-6.873,9.162-13.389,18.808-15.311,30.3-1.5,8.962-1.066,17.28-4.911,25.592-3.854,8.336-16.547,32.921-25.783,35.592-7.736,2.227-5.093-6.8-4.634-12.662,1.319-16.818,1.06-33.83,4.122-50.423,1.577-8.534,3.5-17.548,3.8-26.254.145-4.014,1.278-10.9,0-14.464-1.62-4.526-8.186-9.985-13.139-9.5-6.137.6-6.627,7.15-10.835,10.647-11.771-10.866-25.173-13.87-40.216-17.65-16.987-4.267-31.889,13.287-40.487,25.589-11.488,16.442-12.887,34.954-21.519,51.935-2.951,5.81-14.547,33.013-22.721,33.032-12.073.034-5.367-76.017-6.827-84.754-2.357-14.11-11.747-26.359-25.761-30.222-21.4-5.9-29.415,9.492-43.377,21.309-8.17-4.079-16.531-28.879-28.364-19.859-7.751,5.909-9.707,22.431-10.86,31.322-1.143,8.789-1.038,18.007-3.2,26.639-1.42,5.684-4.316,8.829-7.36,14.039-6.451,11.045-12.073,22.453-18.706,33.306-6.839,11.174-12.662,26.165-23.33,34.307-16.756,12.8-23.82-15.234-27.111-26.485-5.185-17.726-11.276-36.756-12.348-55.01-.148-2.514.025-12.332,1.143-14.837,1.9-4.27,3.9-3.74,7.847-5.545,9.3-4.248,19.874-9.113,27.28-16.177,12.231-11.664,19.218-27.517,4.067-40.305-7.72-6.513-21.06-9.492-31.177-8.6-13.013,1.146-20.395,9.732-26.257,20.579a87.381,87.381,0,0,0-11.636-1.4c11.753-28.907,2.739-65.46-17.3-88.085C90.149,16.377,60.149,70.583,41.865,92.533c-4-10-3.546-20.814-9.467-30.3A68.573,68.573,0,0,0,19.03,47.253c-6.2-5.025-15.989-.823-18.167,8.182C-.9,62.718.552,71.091.74,78.47c.872,34.255.2,68.4,2.153,102.718,2.089,36.729,6.1,74.129,13.142,110.164,1.827,9.347.742,31.18,16.5,30.3,13.01-.727,11.805-24.865,13.127-33.534,4.868-31.858.61-64.578-.9-96.507-.884-18.679-.672-37.376-1.522-56.076-.656-14.492,8.179-24.319,14.443-37.046,7.668-15.582,37.292-59.018,47.866-22.077,4.935,17.231.989,37.671-2.911,54.68C99.9,143.051,90.8,143.865,81.477,150.83c-12.754,9.538-24.245,26.784-21.778,43.491,1.352,9.174,8.869,19.788,18.414,19.667,13.038-.163,27.992-8.161,35.755-18.669,8.155-11.035,20.025-30.108,21.987-43.839a82.776,82.776,0,0,1,10.336.955c-10.388,25.57-13.974,56.538-11.722,83.95,2.021,24.581,9.729,59.394,34.523,70.891,18.632,8.651,39.877,7.9,55.235-6.26,13.105-12.076,19.073-32.942,27.677-48.18-2.683,18.515-5.739,37.7,14.84,46.695,3.266-4.892,7.646-1.334,12.939-4.184,4.723-2.542,6.386-7.468,7.606-12.175,4.593-17.708,5.857-36.738,8.42-54.791,1.272-8.959.826-16.969,4.141-25.416A127.589,127.589,0,0,1,311.091,181.1c4.282-6.787,20.277-30.875,24.9-14.744,4.612,16.063.952,38.592.382,55.176-.579,16.836.379,34.8,5.071,51.088,3.6,12.489,12.2,24.15,26.963,21.115,14.181-2.927,23.743-20.244,30.478-31.611,1.969,21.017,17.874,52.44,43.67,46.587,10.049-2.274,18.38-10.425,24.714-18.087,2.237-2.7,14.917-25.5,17.126-24.954,1.818.909,4.649,18.244,6.094,21.045,4.168,8.093,10.955,15.367,20.807,14.248,19.741-2.224,32.221-29.424,40.931-44.646,3.78,21.023,15.139,42.872,35.037,52.539,25.37,12.323,53.509-6.183,67.983-26.818a155.409,155.409,0,0,0,15.222-22.452c.9,0,3.016-6.229,3.42-7.116,2.992,17.995,9.711,35.509,21.652,49.548,10.351,12.172,31.115,21.473,45.7,12.36,17.912-11.189,21.947-35.7,24.153-54.96.3-2.622-.668-11.679.964-13.913,1.325-1.812,6.522-2.181,8.475-3.019,8.454-3.638,15.878-10.2,21.473-17.36,2.97,21.793,6.59,43.833,13.05,64.9,5,16.309,10.863,28.626,27.508,33.559,16.621,4.935,24.538-5.167,34.514-17.579,14.307-17.807,23.682-39.649,28.158-62.025a29.869,29.869,0,0,0,22.921-4.821c-2.551,24.455,2.841,65.342,33.753,70.007,12.751,1.928,23.91-6.879,31.9-15.783,2.344-2.6,17.517-28.207,19.486-27.714,1.266.632,3.571,15.238,4.116,16.636,2.2,5.6,5.388,11.682,10.422,15.275,14.4,10.277,29.011-4.362,37.166-15.595,9.239-12.723,16.667-26.855,24.782-40.287,3.247-5.382,20.712-28.894,13.672-35.934M176.564,147.54c3.614-7.212,2.2-11.7,12.841-10.564,6.168.659,9.181,2.055,8.059,7.458-1.232,5.927-20.019,24.68-26.226,23.648,1.519-7.227,2.283-14.079,5.327-20.542M88.208,183.615c-2.344,3.946-5.958,9.02-9.387,12.086-3.774,3.373-3.121,5.712-6.349-.3-4.412-8.226,1.06-21.892,6.938-27.908,2.277-2.332,18.583-13.706,18.01-11.411-2.166,9.375-4.214,19.15-9.211,27.533m401.9,15.083c-1.623,24.31-11.892,45.731-23.534,66.717-4.347,7.831-12.3,24.165-23.774,22.037-11.346-2.117-10.08-18.543-9.461-26.938,1.787-24.212,8.041-50.992,20.237-72.209,5.792-10.08,14.236-22.465,27.058-15.373,9.224,5.1,10.24,16.3,9.473,25.767M731.35,186.521c.761-3.42.761-6.466,2.283-9.892,8.629,8.641,20.472,36.331,16.362,48.706-16.568,2.369-20.681-28.626-18.645-38.814m15.983,91.322c-2.144,8.947-7.28,23.087-18.632,22.221-11.839-.9-18.333-15.3-20.965-25.019-6.546-24.242-5.958-45.293,2.307-69.129-.363,4.883,9.748,20.626,11.963,23.253a49.067,49.067,0,0,0,14.5,11.5c2.523,1.334,11.744,2.548,13.019,3.845,5.24,5.333-.585,26.895-2.193,33.324m138.883-61.254c-3.241,4.865-7.323-9.211-7.557-10.705-.61-3.922-1.094-14.406,2.461-17.215,6.214-4.917,4.63,4.319,4.969,8.78.533,7.018,1.3,12.086.126,19.141m127.093-17.89c-1.623,24.31-11.892,45.731-23.537,66.717-4.347,7.834-12.3,24.165-23.771,22.037-11.349-2.117-10.083-18.543-9.464-26.938,1.787-24.212,8.044-50.992,20.237-72.209,5.792-10.08,14.236-22.465,27.061-15.373,9.221,5.1,10.24,16.3,9.473,25.767" transform="translate(0 84.095)" fill="#2e1b11"/>
        <path id="Caminho_1402" data-name="Caminho 1402" d="M502.033,214.964h-1.186a61.274,61.274,0,0,0-8.065.237c-2.138.234-4.39.117-6.4.709a24.616,24.616,0,0,1-2.967.589c-1.423.474-2.255,0-2.963-1.3a15.351,15.351,0,0,0-5.1-5.2c-1.186-.591-2.372-.946-3.558-1.537a9.4,9.4,0,0,0-4.39-.826c-.829.12-1.781-.117-2.61,0a23.625,23.625,0,0,0-5.813.709,46.7,46.7,0,0,0-9.372,3.312c-4.15,2.12-8.42,4.011-12.572,6.377a8.131,8.131,0,0,1-2.252,1.066c-5.567,2.837-15.9,5.906-15.9,5.906l-5.219,1.057a17.937,17.937,0,0,1-4.982.712c-1.186.117-2.375,0-3.558.234-.24.12-.475,0-.715,0l-6.4-1.768a12.5,12.5,0,0,1-5.813-3.305c-1.423-1.661-2.609-3.432-2.492-5.906a3.162,3.162,0,0,0-.829-2.132c-.949-1.183-2.255-.823-2.73.6a5.871,5.871,0,0,0,.357,3.774,23.288,23.288,0,0,0,4.15,6.5,13.972,13.972,0,0,0,5.1,3.66l1.781.952a20.745,20.745,0,0,0,5.336,2l1.9.234a29.686,29.686,0,0,0,7.942.24l1.787-.474c1.417-.231,2.844.12,4.15-.589l14.47-4.729c1.54-.468,2.967-1.534,4.51-2.123,4.033-1.42,7.942-3.423,11.978-5.08,1.781-.826,3.678-1.3,5.579-2.126.117,0,.354-.12.471-.12,2.252-.829,4.39-2.006,6.879-2.119a6.777,6.777,0,0,0,2.73-.364,5.5,5.5,0,0,1,3.084,0,6.708,6.708,0,0,0,3.441.12c.234-.12.591.117.829.243.829.234,1.544.82,2.372,1.057a3.741,3.741,0,0,1,1.778,1.534c.595.829.477,1.183-.474,1.654-2.613,1.183-5.216,2.015-7.591,3.663a12.279,12.279,0,0,0-4.744,7.677,1.515,1.515,0,0,0-.117.712,10.362,10.362,0,0,0,3.2,5.909,2.544,2.544,0,0,0,.952.585c1.9.709,3.913.354,5.813,0a5.082,5.082,0,0,0,3.081-1.534,13.972,13.972,0,0,1,2.018-1.768,11.677,11.677,0,0,0,3.2-5.321,16.965,16.965,0,0,0,.475-7.326c-.117-1.063,0-1.414,1.069-1.651h.712c1.186-.237,2.372,0,3.558-.351a20.36,20.36,0,0,1,2.489-.715c2.258-.234,4.51-.351,6.759-.471l4.75-.348a1.334,1.334,0,0,0,1.42-1.066,2.057,2.057,0,0,0-1.3-1.774m-25.028,11.1c-.357.946-.478,1.9-.832,2.834a7.217,7.217,0,0,1-4.036,4.492,9.459,9.459,0,0,1-3.2.478c-1.661,0-1.777-.243-2.135-2.252a3.609,3.609,0,0,1,.357-1.889,11.884,11.884,0,0,1,4.861-5.08c1.423-.94,3.2-1.42,4.745-2.357a.441.441,0,0,1,.36-.12c.354-.117.475.12.475.351-.24,1.186-.24,2.366-.595,3.543m-258.776-51.96a24.382,24.382,0,0,1-1.787,2.837,14.982,14.982,0,0,1-1.784,1.889c-.314.32-.841.108-1.051.527-.841,1.371-1.365,1.682-2.1,3.047a1.02,1.02,0,0,1-.419.524c-.631.422-1.787,3.155-2.209,3.681-.946,1.26-2.1,4-2.942,5.25-1.469,2-3.256,5.256-3.993,4.627-1.152-1.053-.419-5.354-.21-7.147.317-3.989,1.051-8.09.841-12.08l-.314-5.776a9.171,9.171,0,0,0-1.787-5.148c-2.1-2.736-6.932-2.942-9.769-1.473-3.047,1.473-5.465,4.31-7.563,7.779a39.27,39.27,0,0,0-4.2,9.553,22.531,22.531,0,0,1-1.368,3.361.963.963,0,0,1-.1-.73l-.209-3.577c-.314-3.256-.736-6.512-1.155-9.658a3.886,3.886,0,0,0-1.155-2.739l-2.418-2.31c-1.679-1.362-3.466-.946-5.253-.419a.362.362,0,0,1-.206.108,14.966,14.966,0,0,0-4.205,4.935,50.6,50.6,0,0,0-2.206,4.726,5.211,5.211,0,0,1-1.155,2.1,14.942,14.942,0,0,0,.1-2,20.951,20.951,0,0,0,0-5.142,1.36,1.36,0,0,1,.1-.635,3.77,3.77,0,0,0,0-1.888,9.542,9.542,0,0,1-.314-2.415,2.232,2.232,0,0,0-.422-1.158c-.946-1.99-2.52-2.628-4.412-2.939l-1.365-.206c-2.1-.216-2.206,10.505-2.418,12.076l-.638,6.771a12.053,12.053,0,0,0-1.251,1.842c-.108.215-.213.527-.422.628-.733.317-3.99,6.83-4.307,7.461A15.128,15.128,0,0,0,142.8,192.6v.1a9.2,9.2,0,0,1-1.051,1.682c-2,2.939-6.3,12.924-10.191,9.874a9.645,9.645,0,0,1-3.151-5.354,33.478,33.478,0,0,0-.946-3.469c-1.155-3.044-1.47-6.3-2.415-9.452a.65.65,0,0,1-.1-.425c0-1.362.209-2.73-.527-3.888v-.419a24.632,24.632,0,0,0,.314-3.989,1.2,1.2,0,0,1,.946-1.152,5.989,5.989,0,0,0,1.577-.527c1.784-.739,3.256-1.895,4.938-2.631a7.323,7.323,0,0,0,2.625-2.1l1.05-1.155c2.628-2.422,3.361-6.932-.314-9.563-.628-.524-1.368-.946-2.1-1.473a1.11,1.11,0,0,0-.838-.1,5.609,5.609,0,0,1-1.787-.413,10.255,10.255,0,0,0-6.408.206,7.988,7.988,0,0,0-3.571,3.149c-3.191,4.831-4.637,10.8-5.33,16.75-.046.1-.089.167-.136.274a1.071,1.071,0,0,1-.419.524c-.527.311-1.365,2.52-1.787,3.044a37.7,37.7,0,0,1-1.892,3.466,10.354,10.354,0,0,1-1.155,2c-.629.317-1.47,2.526-1.787,2.939-.733,1.053-1.365,2.313-1.993,3.364a16.361,16.361,0,0,1-1.473,2.415c-.736.946-1.365,2.1-2.31,3.361l-1.155,1.476c-3.679,4.624-5.779,4.2-6.2-1.26l-.314-4.1-.314-5.57c-.1-1.158,0-3.888,0-5.043l.527-9.772c.314-3.571.419-6.615.946-10.185,0-.524.314-2.526.524-4.1.21-1.473.527-2.733.527-3.155a1.38,1.38,0,0,1,.733-1.263,54.653,54.653,0,0,0,6.408-3.57,6.412,6.412,0,0,1,3.574-1.47,4.134,4.134,0,0,0,3.466-1.685,1.31,1.31,0,0,0-.736-2.1,2.085,2.085,0,0,0-1.889.314,7.152,7.152,0,0,1-1.577.628,44.421,44.421,0,0,0-6.094,1.895c-.524.206-1.048.527-1.679.733-.209.1-.527.1-.422-.317a31.253,31.253,0,0,0,.213-6.3v-.21a7.415,7.415,0,0,0-.317-3.989,3.259,3.259,0,0,0-1.365-2.1,8.121,8.121,0,0,0-3.466-1.263,2.693,2.693,0,0,0-3.155,2.307.67.67,0,0,0-.1.422A27.285,27.285,0,0,0,89.43,144.8c-.736,3.783-1.469,7.354-2.415,10.927-.314.844-.314.943-1.365,1.051-2.1.419-.844.629-3.047,1.155a6.7,6.7,0,0,1-2.837.422c-1.26,0-2.415.207-3.571.207-.736-.1-.736.216-.422.847.213.628.736.936,1.368,1.463a6.643,6.643,0,0,0,3.78,1.577,8.35,8.35,0,0,0,2.628-.2c1.051-.216.838-.425,1.993-.425-.21,1.685-.419,4.307-.524,4.52-.419,2.517-.632,5.671-.946,8.192-.314,2.311-.524,4.1-.628,6.408-.213,2.625,0,5.459-.108,8.2a44.463,44.463,0,0,0,.317,6.512c.419,5.776,2.834,12.5,8.718,14.714,4.939,1.885,8.614-1.057,11.346-4.729,2.837-2.736,8.195-12.3,9.56-14.923.558-.986,1.091-1.87,1.7-2.979.1,1.9.351,3.808.5,5.718a13.76,13.76,0,0,0,.841,3.567c.841,2.209,1.787,4.409,2.837,6.617a11.262,11.262,0,0,0,7.985,6.3c2,.524,3.257,1.051,5.358.629,1.787-.311,3.361-.1,4.831-1.26,2.209-1.784,3.679-1.993,6.3-7.665l1.054-2.1c.946-1.577,1.574-3.672,2.625-5.148a35.517,35.517,0,0,0,2.036-4.328c-.018.151-.012.3-.04.438q-.314,3.47-.314,6.935a10.965,10.965,0,0,1-.1,1.793,8.7,8.7,0,0,0,.736,5.459c1.26,2.311,3.885.21,5.253,2.1a.836.836,0,0,0,1.47-.317,3.119,3.119,0,0,0,.209-1.054c.21-.939.314-1.99.632-3.044.419-1.892.946-3.672,1.469-5.459.524-2.1.946-4.208,1.682-6.3a18.982,18.982,0,0,0,.524-2.311,14.867,14.867,0,0,1,.736-2.313,8.344,8.344,0,0,0,1.051-3.681,3.311,3.311,0,0,1,.314-.94l1.263-3.577a13.542,13.542,0,0,1,2.625-5.04,4.859,4.859,0,0,1,1.682-1.577c.314-.1.524,0,.628.425a5.785,5.785,0,0,1,.209,1.886c.213,3.891.317,7.668.422,11.556l.314,8.614c.108,1.892.213,3.78.213,5.779,0,.949.1,2.1.943,2.52.108,0,.21.216.314.317.527.943,1.787.838,2.732.943.21,0,.419.216.527.314.733.527,1.26.321,1.365-.73l.631-1.682a6.52,6.52,0,0,0,.733-1.476c1.155-3.044,1.891-6.087,2.942-9.14l.841-2.723a42.066,42.066,0,0,0,2-5.468c.314-.94,1.26-2.622,1.682-3.571l1.47-3.364c1.469-2.723,2.837-4.624,5.043-5.777,1.365-.628,2.311,1.051,2.415,2.939,0,1.371-.209,2.736-.314,4.208-.317,3.044-.736,6.192-1.155,9.245h.1c-.631,3.25-.317,5.878-.212,9.033.108,4.205,1.682,8.506,6.62,8.716,5.358.216,7.036-3.676,8.719-6.3l.314-.518a62.449,62.449,0,0,0,3.993-7.255c.632-1.473,1.159-2.311,1.895-3.783l1.152-2.415,1.891-3.574c.736-1.463.422-2.415,1.47-3.672a2.843,2.843,0,0,1,.317-.844c.1-.308.419-1.26.209-1.365-.314-.314-.527-.1-.736.1m-91.5-9.14a2.782,2.782,0,0,0,.314-1.26,1.469,1.469,0,0,1,1.054-1.463,5.748,5.748,0,0,1,4.2.413.805.805,0,0,1,.422,1.155l-.841,1.155a30.09,30.09,0,0,1-5.253,5.148,1.807,1.807,0,0,1-1.365.527,24.964,24.964,0,0,1,1.469-5.675m248.773,9.14a24.791,24.791,0,0,1-1.787,2.837,15,15,0,0,1-1.787,1.889c-.314.32-.838.108-1.051.527-.841,1.371-1.365,1.682-2.1,3.047a1.021,1.021,0,0,1-.419.524c-.631.422-1.787,3.155-2.206,3.681-.946,1.26-2.1,4-2.942,5.25-1.469,2-3.259,5.256-3.993,4.627-1.155-1.053-.422-5.354-.209-7.147.314-3.989,1.05-8.09.841-12.08l-.317-5.776a9.189,9.189,0,0,0-1.784-5.148c-2.1-2.736-6.935-2.942-9.772-1.473-3.044,1.473-5.462,4.31-7.563,7.779a39.276,39.276,0,0,0-4.2,9.553,22.818,22.818,0,0,1-1.365,3.361.964.964,0,0,1-.1-.73l-.21-3.577c-.317-3.256-.736-6.512-1.155-9.658a3.888,3.888,0,0,0-1.158-2.739l-2.415-2.31c-1.682-1.362-3.469-.946-5.253-.419a.363.363,0,0,1-.21.108,14.958,14.958,0,0,0-4.2,4.935,49.811,49.811,0,0,0-2.209,4.726,5.236,5.236,0,0,1-1.152,2.1,14.927,14.927,0,0,0,.1-2,21.108,21.108,0,0,0,0-5.142,1.362,1.362,0,0,1,.1-.635,3.839,3.839,0,0,0,0-1.888,9.543,9.543,0,0,1-.314-2.415,2.232,2.232,0,0,0-.422-1.158c-.946-1.99-2.52-2.628-4.412-2.939l-1.368-.206c-2.1-.216-2.206,10.505-2.415,12.076l-.419,4.433c-.5.863-1.032,1.716-1.577,2.5a15.2,15.2,0,0,1-1.888,1.787l-.946.638a9.016,9.016,0,0,1-3.047,1.152c-.422.1-.314-.216-.314-.74-.108-3.882-1.577-7.347-2.523-11.029a9.548,9.548,0,0,0-3.152-4.834c-1.469-1.362-3.152-2.206-4.519-3.672a1.157,1.157,0,0,0-.733-.32,13.63,13.63,0,0,0-4.1,0,4.6,4.6,0,0,0-2.625,1.787c-.841,1.26-2.209,1.889-3.151,3.26a21.558,21.558,0,0,0-2.628,5.671c-.114.4-.191.838-.287,1.26a2.431,2.431,0,0,0-.237.21l-.317.422a21.115,21.115,0,0,1-1.365,2.622l-.209.32c-.317.311-.946,1.467-1.473,2.209a17.476,17.476,0,0,1-3.78,4.2,15.66,15.66,0,0,0-3.047-5.462c-5.148-5.989-16.494-1.787-13.762,6.827a9.373,9.373,0,0,0,5.357,5.779,11.067,11.067,0,0,0,4.2.844c.736,0,1.469-.1,2.206-.1.632,3.672-1.682,6.3-3.152,9.763a3.225,3.225,0,0,1-.946,1.152l-2.206,2.209a3.39,3.39,0,0,1-2.206.844c-1.155.207-1.892-.524-2.837-.946a3,3,0,0,1-1.787-2.107l-.206-.838c-.213-.628-.213-1.469-.739-1.99a5.844,5.844,0,0,1-1.26-2.834c-.419-2.108-.733-4.212-1.051-6.306-.1-1.58-.632-3.158-.527-4.729a15.735,15.735,0,0,0-.419-4.942,10.1,10.1,0,0,1-.314-3.568,11.537,11.537,0,0,0,.21-1.892,6.029,6.029,0,0,1-.1-1.368h.1V173.9l.209-1.257a1.869,1.869,0,0,1,1.054-.952l.314-.206a28.533,28.533,0,0,0,6.83-5.469c1.362-1.466,2.52-3.145,3.885-4.621a4.4,4.4,0,0,0,.946-1.682,3.626,3.626,0,0,1,.628-1.26c1.053-1.787,2.418-3.466,2.628-5.675,0-.1.1-.206.209-.413a24.8,24.8,0,0,0,1.892-5.573,17.759,17.759,0,0,0,.21-5.776,8.1,8.1,0,0,0-1.787-4.941,9.841,9.841,0,0,0-7.982-3.355.642.642,0,0,0-.422.1,13.744,13.744,0,0,0-4.831,3.148,39.19,39.19,0,0,0-7.459,11.451c-.632,1.787-1.577,3.368-2.1,5.148-.841,3.044-1.473,6.091-2.206,9.144a81.353,81.353,0,0,0-1.368,8.817c-.209,1.06-.209,1.158-1.26,1.368a7.718,7.718,0,0,1-4.621-.308c-.422-.108-.946-.425-1.263,0-.314.524.213.937.422,1.359l.1.1c1.679,1.263,3.256,2.733,5.567,2.733.317,0,.632.1.632.422a15.178,15.178,0,0,1-.108,2.209,69.695,69.695,0,0,0,.635,9.35c.1,1.362.524,2.622.628,3.882a16.1,16.1,0,0,0,.736,4.415,6.085,6.085,0,0,1,.419,1.257,19.405,19.405,0,0,0,2,5.884,14.533,14.533,0,0,0,3.574,5.465,9.307,9.307,0,0,0,5.881,3.149,3.8,3.8,0,0,1,1.155.317,8.134,8.134,0,0,0,5.675.21c.21,0,.524-.1.733-.1a6.045,6.045,0,0,0,1.892-.73,44.131,44.131,0,0,0,3.466-2.739,4.869,4.869,0,0,0,1.787-2.1l.527-1.26a29.88,29.88,0,0,0,3.78-9.769c.1-.736.1-3.993.419-4.2a37.935,37.935,0,0,0,2.945-2.939c.816-1.051,1.4-1.83,1.845-2.44-.022.524-.062,1.044-.062,1.6a34.934,34.934,0,0,0,1.787,9.877c1.155,3.469,1.892,3.993,3.361,6.408a11.509,11.509,0,0,0,6.2,5.151l1.469.628a6.018,6.018,0,0,0,6.2-.628,11.589,11.589,0,0,0,4.519-5.675,53.852,53.852,0,0,0,2-8.09,52.6,52.6,0,0,0,.419-5.253c0-.425,1.473-.1,3.466-1.476l.736-.422a13.049,13.049,0,0,0,2.264-1.777l-.059.622c-.1,1.155,0,2.314-.21,3.466q-.319,3.47-.317,6.935a10.946,10.946,0,0,1-.1,1.793,8.745,8.745,0,0,0,.736,5.459c1.26,2.311,3.888.21,5.253,2.1a.836.836,0,0,0,1.469-.317,3.044,3.044,0,0,0,.213-1.054c.21-.939.314-1.99.629-3.044.422-1.892.946-3.672,1.47-5.459.527-2.1.949-4.208,1.682-6.3a18.437,18.437,0,0,0,.527-2.311,14.531,14.531,0,0,1,.733-2.313,8.348,8.348,0,0,0,1.054-3.681,3.315,3.315,0,0,1,.314-.94l1.26-3.577a13.5,13.5,0,0,1,2.628-5.04,4.823,4.823,0,0,1,1.679-1.577c.314-.1.524,0,.632.425a5.78,5.78,0,0,1,.21,1.886c.209,3.891.314,7.668.422,11.556l.314,8.614c.1,1.892.21,3.78.21,5.779,0,.949.1,2.1.946,2.52.1,0,.21.216.314.317.524.943,1.787.838,2.729.943.213,0,.422.216.527.314.736.527,1.263.321,1.368-.73l.628-1.682a6.525,6.525,0,0,0,.736-1.476c1.155-3.044,1.889-6.087,2.942-9.14l.838-2.723a42.1,42.1,0,0,0,2-5.468c.314-.94,1.26-2.622,1.679-3.571l1.472-3.364c1.47-2.723,2.834-4.624,5.04-5.777,1.365-.628,2.314,1.051,2.415,2.939,0,1.371-.206,2.736-.314,4.208-.314,3.044-.736,6.192-1.155,9.245h.1c-.632,3.25-.314,5.878-.209,9.033.1,4.205,1.682,8.506,6.617,8.716,5.358.216,7.04-3.676,8.722-6.3l.314-.518a62.95,62.95,0,0,0,3.993-7.255c.628-1.473,1.155-2.311,1.892-3.783l1.155-2.415,1.891-3.574c.733-1.463.419-2.415,1.47-3.672a2.83,2.83,0,0,1,.314-.844c.1-.308.419-1.26.209-1.365-.314-.314-.524-.1-.733.1M258.991,188.5a4.747,4.747,0,0,1-3.149-2.837c-.527-1.578.733-4,2.52-4.206,2.418-.21,3.256,2.84,3.993,4.523,1.152,2.622-1.155,3.25-3.364,2.52m-11.239-25.632c.524-2.107.733-4.208,1.365-6.2l.314-1.05c.949-1.993,1.155-4.2,1.682-6.2a25.552,25.552,0,0,1,1.26-2.942,40.6,40.6,0,0,1,1.787-5.034l.841-1.374a11.024,11.024,0,0,0,2-2.415,2.368,2.368,0,0,1,1.679-1.05.954.954,0,0,1,1.155.632,9.724,9.724,0,0,1,.314,2.939,8,8,0,0,0-.1,1.577,21.335,21.335,0,0,1-1.574,8.407c-.314.635-.419,1.362-.736,2.1a29.919,29.919,0,0,1-4.094,7.357,53.778,53.778,0,0,1-5.779,6.1.6.6,0,0,1-.632.207,15.44,15.44,0,0,1,.527-3.044M290.716,173.8a13.041,13.041,0,0,1,.632-2.733,6.053,6.053,0,0,1,1.155,1.682c.632,1.257,1.263,2.52,1.787,3.78a21.424,21.424,0,0,1,1.682,7.246,2.055,2.055,0,0,1-.1.737,2.548,2.548,0,0,1-1.787-.527,6.833,6.833,0,0,1-2.52-3.25,14.7,14.7,0,0,1-1.054-3.681,8.543,8.543,0,0,1,.21-3.253m4.415,25.21c-.628,2.631-2.311,6.83-5.567,6.1a5.469,5.469,0,0,1-2.628-1.679,9.252,9.252,0,0,1-2.628-4.726l-1.257-5.253c-1.05-5.468.206-9.883,1.889-14.612.1-.1.317.108.317.422a7,7,0,0,0,1.365,3.993,9.769,9.769,0,0,0,1.892,2.736,13.057,13.057,0,0,0,4.2,3.041,4.544,4.544,0,0,0,2.837.736c1.257-.2-.212,8.41-.422,9.245m99.385,6.932c7.144,5.675,13.866-3.466,16.7-8.82.1-.32.733-1.577,1.155-1.473.207.108.317,1.895.419,2.1.838,4.307,4,9.874,9.35,6.833,3.364-1.787,5.989-6.728,7.985-9.877l.314-.53c1.05-1.68,1.891-3.466,3.05-5.148.259-.373.456-.767.678-1.152.394,3.031.712,6.226,1.211,9.245.314,2.31.527,4.726.736,7.036a3.024,3.024,0,0,0,1.362,2.415c.108,0,.216.105.317.216.835.413,1.682,1.155,2.736.939a4.466,4.466,0,0,0,1.26-.311c.524-.216.838.527,1.257.311h.108a2.332,2.332,0,0,0,1.784-1.257,17.36,17.36,0,0,0,1.368-4.1,4.1,4.1,0,0,0,.209-1.577,6.819,6.819,0,0,1-.209-1.993,8.406,8.406,0,0,1,.209-1.787c0-1.577.317-3.05.419-4.621l.527-5.675a28.632,28.632,0,0,1,.943-4.519,12.1,12.1,0,0,0,.626-2.517,4.584,4.584,0,0,1,.53-1.784,3.551,3.551,0,0,0,.844-1.787,16.617,16.617,0,0,1,1.365-3.466,21.787,21.787,0,0,1,3.256-5.256c.733-.844,1.787-.635,2.628-.844.524.425,1.365.631,1.781,1.476.847,1.26,1.9,1.679,3.05,1.26a2.356,2.356,0,0,0,1.574-3.262,2.456,2.456,0,0,0-.628-.835,5.255,5.255,0,0,1-1.158-1.476,4.067,4.067,0,0,0-1.888-1.26,6.443,6.443,0,0,0-3.993,0c-1.682.21-2.834,1.26-3.993,2.631a28.938,28.938,0,0,0-2.517,3.466,39.335,39.335,0,0,0-3.155,5.357,12.515,12.515,0,0,0-1.574,3.885c0,.111-.1.21-.1.317-.108.207-.212.422-.419.422-.108,0-.212-.32-.212-.53a13.386,13.386,0,0,0-.21-1.885,15.587,15.587,0,0,0-1.473-5.256,4.6,4.6,0,0,0-1.574-1.892c-.1-.108-.317-.21-.419-.419-1.473-2.206-3.679-2.733-5.783-3.361h-.206a22.945,22.945,0,0,0-2.631.1,2.919,2.919,0,0,0-1.467,1.054,1.046,1.046,0,0,0-.212,1.257s.1,0,0,.21c-.419.629,0,1.051.212,1.577a55.2,55.2,0,0,1,1.787,7.144c.36,1.811.619,3.6.865,5.382-.077.132-.154.24-.237.394-.1.215-.216.527-.419.628-.632.317-1.682,2.421-2.107,3.053-.838,1.257-1.466,2.727-2.31,3.992-1.044,1.571-7.878,12.6-7.141,5.253.317-3.05.422-6.2.632-9.245a23.326,23.326,0,0,1,.628-5.992c.629-2.415.629-4.834,1.051-7.246a1.8,1.8,0,0,0,0-1.054,3.474,3.474,0,0,1,.1-2.311c0-.206.1-.419-.1-.629a4.426,4.426,0,0,0-2.732-2.415c-1.466-.422-1.679-.321-2.517.838-.527.527-.736,1.368-1.365,1.889l-1.371-1.26c-1.889-1.888-4.3-2.311-6.722-2.622a6.006,6.006,0,0,1-2-.425c-1.682-1.254-3.469-.835-5.04-.1a15.066,15.066,0,0,0-5.675,4.621A28.487,28.487,0,0,0,390,181.362c-1.682,8.293-3.152,18.592,4.519,24.575m4.516-17.434a35.45,35.45,0,0,1,2-7.252c1.574-4.2,2.1-7.144,6.091-11.137a2.037,2.037,0,0,1,1.476-.733c4.831.209,5.672,3.891,5.357,7.773a31.6,31.6,0,0,1-.632,4.624c-.317,2.2-2,6.093-2.837,7.982a20.6,20.6,0,0,1-1.368,2.631,43.971,43.971,0,0,1-4.2,7.141c-2.1,2.733-5.567,3.26-6.512-.733-.629-2.631.21-7.665.628-10.3" transform="translate(157.249 276.156)" fill="#2e8335"/>
      </g>
    </g>
  </g>
</svg>
