<svg id="Grupo_374" data-name="Grupo 374" xmlns="http://www.w3.org/2000/svg" xmlns:xlink="http://www.w3.org/1999/xlink" viewBox="0 0 1093.38 511.04"><defs><style>.cls-1{fill:none;}.cls-2{clip-path:url(#clip-path);}.cls-3{fill:#fff;}.cls-4{opacity:0.68;}.cls-5{clip-path:url(#clip-path-3);}.cls-6{clip-path:url(#clip-path-4);}.cls-7{fill:url(#Gradiente_sem_nome);}.cls-8{clip-path:url(#clip-path-5);}.cls-9{clip-path:url(#clip-path-6);}.cls-10{fill:url(#Gradiente_sem_nome-2);}.cls-11{clip-path:url(#clip-path-7);}.cls-12{clip-path:url(#clip-path-8);}.cls-13{fill:url(#Gradiente_sem_nome-3);}.cls-14{clip-path:url(#clip-path-9);}.cls-15{clip-path:url(#clip-path-10);}.cls-16{fill:url(#Gradiente_sem_nome-4);}.cls-17{clip-path:url(#clip-path-11);}.cls-18{clip-path:url(#clip-path-12);}.cls-19{fill:url(#Gradiente_sem_nome-5);}.cls-20{clip-path:url(#clip-path-13);}.cls-21{clip-path:url(#clip-path-14);}.cls-22{fill:url(#Gradiente_sem_nome-6);}.cls-23{clip-path:url(#clip-path-15);}.cls-24{clip-path:url(#clip-path-16);}.cls-25{fill:url(#Gradiente_sem_nome-7);}.cls-26{clip-path:url(#clip-path-17);}.cls-27{clip-path:url(#clip-path-18);}.cls-28{fill:url(#Gradiente_sem_nome-8);}.cls-29{opacity:0.63;}.cls-30{clip-path:url(#clip-path-19);}.cls-31{clip-path:url(#clip-path-20);}.cls-32{fill:#3a9e52;}.cls-33{clip-path:url(#clip-path-21);}.cls-34{clip-path:url(#clip-path-23);}.cls-35{clip-path:url(#clip-path-25);}.cls-36{fill:#2e8335;}</style><clipPath id="clip-path"><rect class="cls-1" width="1093.38" height="511.04"/></clipPath><clipPath id="clip-path-3"><rect class="cls-1" x="783.34" width="70.07" height="109.12"/></clipPath><clipPath id="clip-path-4"><path class="cls-1" d="M796.27,4.26a6.6,6.6,0,0,0-3.87,1C789.85,7.17,786,30.3,786,45.66v.66a31.81,31.81,0,0,0,1.41,11.09,369.76,369.76,0,0,0,40.86,47.68c4.07,4.06,7.3-1.26,8.66-3.46a116.47,116.47,0,0,0,10.54-48.89V51.31a50.31,50.31,0,0,0-5.53-25.49c-4.69-7.49-33.37-21.45-45.37-21.59Z"/></clipPath><linearGradient id="Gradiente_sem_nome" x1="197.18" y1="-23.36" x2="197.63" y2="-23.36" gradientTransform="matrix(6.83, 0, 0, -11.65, -1347.35, -215.57)" gradientUnits="userSpaceOnUse"><stop offset="0" stop-color="#24692c"/><stop offset="1" stop-color="#4e9e23"/></linearGradient><clipPath id="clip-path-5"><rect class="cls-1" x="763.16" y="10.2" width="77.29" height="95.53"/></clipPath><clipPath id="clip-path-6"><path class="cls-1" d="M780.89,11h-.21c-7.12,1.3-14.56,27.59-14.7,41.68v.84a17.31,17.31,0,0,0,.83,5.85c7.78,19.88,49.69,42.35,64.68,44.88,2.62.45,9,1.56,8.16-3.94a349.3,349.3,0,0,0-13.49-59.48C821.25,32.18,786.28,11.09,781,11Z"/></clipPath><linearGradient id="Gradiente_sem_nome-2" x1="205.96" y1="-31.18" x2="206.33" y2="-31.18" gradientTransform="matrix(8.28, 0, 0, -10.54, -1705, -270.17)" xlink:href="#Gradiente_sem_nome"/><clipPath id="clip-path-7"><rect class="cls-1" x="818.79" y="114.67" width="69.31" height="108.07"/></clipPath><clipPath id="clip-path-8"><path class="cls-1" d="M838.74,117.21c-2.61.08-4.5,3.47-5.45,5.12-7.25,12.79-14.49,57.94-2.51,75.89,5.65,8.44,43.06,24.53,49.74,19.08a109.13,109.13,0,0,0,5.09-37v-.8a41,41,0,0,0-1.8-14.47,369.91,369.91,0,0,0-42.07-46.38,4.41,4.41,0,0,0-2.85-1.41Z"/></clipPath><linearGradient id="Gradiente_sem_nome-3" x1="200.59" y1="-31.48" x2="201" y2="-31.48" gradientTransform="matrix(7.43, 0, 0, -11.73, -1489.81, -199.31)" xlink:href="#Gradiente_sem_nome"/><clipPath id="clip-path-9"><rect class="cls-1" x="830.24" y="116.21" width="80.98" height="95.93"/></clipPath><clipPath id="clip-path-10"><path class="cls-1" d="M836,117.21c-2.39,0-4.81.66-4.84,3.45v.1a5.89,5.89,0,0,0,.1,1c2.21,12.53,11.08,52.81,15.74,60.4,5.27,8.59,41.38,28.89,47.17,29.06h.39c8.69-1.86,16.67-40.41,12.6-49.86-8.61-20.08-52.27-41.73-67.71-43.85a24,24,0,0,0-3.38-.3Z"/></clipPath><linearGradient id="Gradiente_sem_nome-4" x1="207.95" y1="-40.82" x2="208.3" y2="-40.82" gradientTransform="matrix(8.9, 0, 0, -10.45, -1851.24, -262.46)" xlink:href="#Gradiente_sem_nome"/><clipPath id="clip-path-11"><rect class="cls-1" x="837.71" y="61.48" width="110.93" height="71.88"/></clipPath><clipPath id="clip-path-12"><path class="cls-1" d="M898.65,64.15a20.75,20.75,0,0,0-6.55.82c-8.16,3-40.43,29.76-50.08,38.46a4.29,4.29,0,0,0-1.68,3.16h0c0,2.59,3.08,4.79,4.6,5.89a117.23,117.23,0,0,0,54.42,14.4h1.17a42.39,42.39,0,0,0,19.7-4.07c7.91-4.36,24.07-33.7,24.36-45.54v-.62a5.85,5.85,0,0,0-.75-3c-2-3-29.93-9.49-44.72-9.56Z"/></clipPath><linearGradient id="Gradiente_sem_nome-5" x1="216.68" y1="-76.74" x2="216.95" y2="-76.74" gradientTransform="matrix(11.59, 0, 0, -6.98, -2510.88, -440.11)" xlink:href="#Gradiente_sem_nome"/><clipPath id="clip-path-13"><rect class="cls-1" x="838.85" y="40.46" width="100.76" height="74.76"/></clipPath><clipPath id="clip-path-14"><path class="cls-1" d="M890.9,43.52c-20.69,6.56-46.3,47.62-49.84,62.68a20.72,20.72,0,0,0-.67,4.36v.13c0,2.11.74,4,3.45,4.09h.7a355.5,355.5,0,0,0,61.36-9.68c9.24-4.49,33.76-39.89,33.29-44.2-.9-7.79-30.59-17.85-44-17.85a14.43,14.43,0,0,0-4.23.51"/></clipPath><linearGradient id="Gradiente_sem_nome-6" x1="215.21" y1="-59.18" x2="215.48" y2="-59.18" gradientTransform="matrix(11.03, 0, 0, -7.98, -2374.61, -393.15)" xlink:href="#Gradiente_sem_nome"/><clipPath id="clip-path-15"><rect class="cls-1" x="719.5" y="87.18" width="111.65" height="70.99"/></clipPath><clipPath id="clip-path-16"><path class="cls-1" d="M749.12,96.89C741,101,723.67,130,723.42,141.47v.5a5.43,5.43,0,0,0,.66,2.7c1.94,3.18,31.49,10.84,45.88,10.94h.58a17.5,17.5,0,0,0,5-.61c8.25-2.7,41.28-28.06,51.18-36.33,4.43-3.69-.58-7.49-2.65-9.08a118.76,118.76,0,0,0-57.06-16.11,40.61,40.61,0,0,0-17.9,3.39"/></clipPath><linearGradient id="Gradiente_sem_nome-7" x1="218.71" y1="-81.83" x2="218.96" y2="-81.83" gradientTransform="matrix(11.98, 0, 0, -6.91, -2619.06, -440.51)" xlink:href="#Gradiente_sem_nome"/><clipPath id="clip-path-17"><rect class="cls-1" x="728.33" y="107.85" width="100.32" height="74.16"/></clipPath><clipPath id="clip-path-18"><path class="cls-1" d="M823.1,108.12c-12.41.56-52.55,4.18-60.47,7.87-9.1,4.23-33.76,38.76-33.94,43.8V160c.67,8.05,30,19.41,43,19.62h.71a12,12,0,0,0,3-.39c20.52-6,46.83-47,50.76-62.24.68-2.61,2.32-8.83-2.82-8.83h-.33"/></clipPath><linearGradient id="Gradiente_sem_nome-8" x1="216.52" y1="-66.89" x2="216.8" y2="-66.89" gradientTransform="matrix(11.1, 0, 0, -7.94, -2403.99, -387.55)" xlink:href="#Gradiente_sem_nome"/><clipPath id="clip-path-19"><rect class="cls-1" x="792.08" y="10.67" width="53.2" height="99.2"/></clipPath><clipPath id="clip-path-20"><rect class="cls-1" x="792.09" y="10.67" width="53.2" height="99.2"/></clipPath><clipPath id="clip-path-21"><rect class="cls-1" x="835.71" y="59.15" width="96.13" height="57.7"/></clipPath><clipPath id="clip-path-23"><rect class="cls-1" x="736.93" y="103.5" width="97.21" height="54.39"/></clipPath><clipPath id="clip-path-25"><rect class="cls-1" x="824.24" y="111.45" width="51.28" height="100.03"/></clipPath></defs><g class="cls-2"><g id="Grupo_236" data-name="Grupo 236"><g id="Grupo_235" data-name="Grupo 235"><g class="cls-2"><g id="Grupo_234" data-name="Grupo 234"><path id="Caminho_1387" data-name="Caminho 1387" class="cls-3" d="M943.86,73.71a22.73,22.73,0,0,0-9-3.76,26.19,26.19,0,0,0,4.27-9.06c-1-8.77-38.52-20.43-48.27-17.35-14.11,4.5-30.47,25-40.6,42.29a109.4,109.4,0,0,0-8.88,10.59c-.29.39-.54.8-.82,1.19.18-.59.37-1.19.54-1.8a120.25,120.25,0,0,0,3.14-14.66c.12-.83.22-1.67.32-2.5,3.75-18.14,4.78-41.06-2.65-52.88C836.52,17.15,799.3,0,792.43,5.18a22.61,22.61,0,0,0-3,9.09,23.81,23.81,0,0,0-8.67-3.36c-8.53,1.56-17.53,39-13.87,48.34,6.13,15.69,33.54,33,52.18,40.83,1,1,1.94,2,3,2.91a48.88,48.88,0,0,0,5.93,4.62c.52.32,1,.62,1.58.9-.84-.28-1.69-.58-2.54-.83-2.39-.7-4.81-1.27-7.25-1.8-.9-.18-1.8-.3-2.64-.46-17-8.32-51.46-16.9-67.93-8.57-9.08,4.57-29.61,40.29-25,47.78A26.57,26.57,0,0,0,734.28,149a33.6,33.6,0,0,0-5.56,10.8c.75,9,37.16,22.06,46.78,19.23,14.65-4.29,32.24-26.42,42.55-44.27a109.15,109.15,0,0,0,9.9-10.61,48.29,48.29,0,0,0,3-4.15c-.63,1.67-1.2,3.35-1.73,5a120.61,120.61,0,0,0-3.53,14.5,77.36,77.36,0,0,0-1.12,21.8,64.4,64.4,0,0,0,6.18,36.71c5.63,8.45,43,24.53,49.73,19.08a25.88,25.88,0,0,0,2.89-10.28,32.21,32.21,0,0,0,11.13,4.21c8.7-1.86,16.68-40.41,12.6-49.86C900,144.67,869,127.06,849.72,120.18c-.49-.51-1-1.06-1.47-1.56a53.67,53.67,0,0,0-4.64-4,4.54,4.54,0,0,0,.82.07c1-.07,2.06-.16,3.3-.28l.51.1c15.39,8.43,54.43,18,72,8.28,8.94-4.93,28.41-41.75,23.61-49.17m-100.76,24c.77-1.07,1.62-2.1,2.43-3.13a73.48,73.48,0,0,0-3.83,9.16,3.7,3.7,0,0,0-1.09,4.24,18.78,18.78,0,0,0-.28,2.24l-.15-.05c-.56-.19-1-.43-1.52-.64a2.85,2.85,0,0,1-.58-.4,3.58,3.58,0,0,1,0-2.15,18.12,18.12,0,0,1,1.2-3.12A47.73,47.73,0,0,1,843,97.62m-9.4,13.21a3.75,3.75,0,0,0-1.45-1.23,4.37,4.37,0,0,0,2.81-.12,4,4,0,0,0,.69-.53,3.59,3.59,0,0,0,.38,1.23,3.55,3.55,0,0,0,1.45,1.24,3.72,3.72,0,0,0-2.06.2,3.81,3.81,0,0,0-1.45,1.45,3.93,3.93,0,0,0-.37-2.24m1.07-6.37h.9c-.15.32-.26.66-.42,1-.24.55-.52,1-.76,1.45a2.93,2.93,0,0,1-.45.54,3.28,3.28,0,0,1-2.07-.23,13.38,13.38,0,0,1-2.28-1.12,4.15,4.15,0,0,0,5-1.61m5.88,8.09h0l-.12-.06h.12m-16.3-10.45,1.61.54c.83.9,1.61,1.65,2.26,2.3a5.9,5.9,0,0,0,1.36,1l-.5-.28a45.92,45.92,0,0,1-4.72-3.6m1.9,20.69c-1.47,1.86-3.06,3.67-4.69,5.4a78.24,78.24,0,0,0,3.77-8.54l1.38-1.13a4,4,0,0,0,1.07-5.6,4,4,0,0,0-.78-.85,6,6,0,0,0-.37-2.29c1,.32,2.06.65,3,1,.56.19,1,.45,1.5.66a2.35,2.35,0,0,1,.58.41,3,3,0,0,1-.12,2,16.37,16.37,0,0,1-1.32,3,46.91,46.91,0,0,1-4,5.86m5.05,2.9c.13-.41.3-.81.44-1.22a4.34,4.34,0,0,0,.11.59c-.53,1.23-1,2.63-1.55,4.14.33-1.17.64-2.36,1-3.52m9.27-7.88a3.28,3.28,0,0,0-2.45-.35,14.55,14.55,0,0,0-3.49,0c.23-.52.45-1.07.7-1.58s.54-.94.8-1.43a2.93,2.93,0,0,1,.46-.54,3.12,3.12,0,0,1,2,.31,16.77,16.77,0,0,1,2.86,1.61,41.9,41.9,0,0,1,3.81,3.1,47,47,0,0,0-4.69-1.12"/><g id="Grupo_178" data-name="Grupo 178" class="cls-4"><g id="Grupo_177" data-name="Grupo 177"><g class="cls-5"><g id="Grupo_176" data-name="Grupo 176"><g id="Grupo_175" data-name="Grupo 175"><g class="cls-6"><g id="Grupo_174" data-name="Grupo 174"><rect id="Retângulo_60" data-name="Retângulo 60" class="cls-7" x="785.98" y="4.26" width="61.47" height="104.85"/></g></g></g></g></g></g></g><g id="Grupo_183" data-name="Grupo 183" class="cls-4"><g id="Grupo_182" data-name="Grupo 182"><g class="cls-8"><g id="Grupo_181" data-name="Grupo 181"><g id="Grupo_180" data-name="Grupo 180"><g class="cls-9"><g id="Grupo_179" data-name="Grupo 179"><rect id="Retângulo_62" data-name="Retângulo 62" class="cls-10" x="765.98" y="10.95" width="74.47" height="94.79"/></g></g></g></g></g></g></g><g id="Grupo_188" data-name="Grupo 188" class="cls-4"><g id="Grupo_187" data-name="Grupo 187"><g class="cls-11"><g id="Grupo_186" data-name="Grupo 186"><g id="Grupo_185" data-name="Grupo 185"><g class="cls-12"><g id="Grupo_184" data-name="Grupo 184"><rect id="Retângulo_64" data-name="Retângulo 64" class="cls-13" x="818.79" y="117.21" width="66.82" height="105.53"/></g></g></g></g></g></g></g><g id="Grupo_193" data-name="Grupo 193" class="cls-4"><g id="Grupo_192" data-name="Grupo 192"><g class="cls-14"><g id="Grupo_191" data-name="Grupo 191"><g id="Grupo_190" data-name="Grupo 190"><g class="cls-15"><g id="Grupo_189" data-name="Grupo 189"><rect id="Retângulo_66" data-name="Retângulo 66" class="cls-16" x="831.14" y="117.21" width="80.09" height="94.04"/></g></g></g></g></g></g></g><g id="Grupo_198" data-name="Grupo 198" class="cls-4"><g id="Grupo_197" data-name="Grupo 197"><g class="cls-17"><g id="Grupo_196" data-name="Grupo 196"><g id="Grupo_195" data-name="Grupo 195"><g class="cls-18"><g id="Grupo_194" data-name="Grupo 194"><rect id="Retângulo_68" data-name="Retângulo 68" class="cls-19" x="840.35" y="64.15" width="104.25" height="62.79"/></g></g></g></g></g></g></g><g id="Grupo_203" data-name="Grupo 203" class="cls-4"><g id="Grupo_202" data-name="Grupo 202"><g class="cls-20"><g id="Grupo_201" data-name="Grupo 201"><g id="Grupo_200" data-name="Grupo 200"><g class="cls-21"><g id="Grupo_199" data-name="Grupo 199"><rect id="Retângulo_70" data-name="Retângulo 70" class="cls-22" x="840.35" y="43.03" width="99.27" height="71.76"/></g></g></g></g></g></g></g><g id="Grupo_208" data-name="Grupo 208" class="cls-4"><g id="Grupo_207" data-name="Grupo 207"><g class="cls-23"><g id="Grupo_206" data-name="Grupo 206"><g id="Grupo_205" data-name="Grupo 205"><g class="cls-24"><g id="Grupo_204" data-name="Grupo 204"><rect id="Retângulo_72" data-name="Retângulo 72" class="cls-25" x="723.42" y="93.52" width="107.73" height="62.13"/></g></g></g></g></g></g></g><g id="Grupo_213" data-name="Grupo 213" class="cls-4"><g id="Grupo_212" data-name="Grupo 212"><g class="cls-26"><g id="Grupo_211" data-name="Grupo 211"><g id="Grupo_210-2" data-name="Grupo 210-2"><g class="cls-27"><g id="Grupo_209" data-name="Grupo 209"><rect id="Retângulo_74" data-name="Retângulo 74" class="cls-28" x="728.69" y="108.11" width="99.89" height="71.47"/></g></g></g></g></g></g></g><g id="Grupo_218" data-name="Grupo 218" class="cls-29"><g id="Grupo_217" data-name="Grupo 217"><g class="cls-30"><g id="Grupo_216" data-name="Grupo 216"><g id="Grupo_215" data-name="Grupo 215"><g class="cls-31"><g id="Grupo_214" data-name="Grupo 214"><path id="Caminho_1396" data-name="Caminho 1396" class="cls-32" d="M803.09,11.11a9.78,9.78,0,0,0-5.67,4.37,22.11,22.11,0,0,0-2.81,6.75,55.19,55.19,0,0,0-1.33,14.66,99.17,99.17,0,0,0,5.06,29c.8,2.32,1.63,4.63,2.61,6.87a38.6,38.6,0,0,0,3.39,6.3,109.86,109.86,0,0,0,8.85,11.76,108.51,108.51,0,0,0,10.24,10.55,46.12,46.12,0,0,0,5.66,4.37,16.37,16.37,0,0,0,2.95,1.5,3.25,3.25,0,0,0,2.06.24,2.36,2.36,0,0,0,.45-.55c.26-.49.53-.9.77-1.45.5-1,1-2.15,1.38-3.29.9-2.26,1.61-4.61,2.3-7a117.63,117.63,0,0,0,3.18-14.39A63.55,63.55,0,0,0,841.06,52a79,79,0,0,0-14-25.7,59.8,59.8,0,0,0-10.41-10.44,29.42,29.42,0,0,0-6.3-3.72,13.11,13.11,0,0,0-7.2-1.07l0-.22a13.31,13.31,0,0,1,7.4.85,29.45,29.45,0,0,1,6.59,3.59A61,61,0,0,1,828,25.53a80.64,80.64,0,0,1,14.75,26,63.3,63.3,0,0,1,1.48,29.68,120.4,120.4,0,0,1-3.14,14.67c-.69,2.41-1.43,4.79-2.31,7.14-.43,1.18-.9,2.34-1.43,3.48a6.47,6.47,0,0,1-2.27,3.08,5.2,5.2,0,0,1-3.82-.17,19.1,19.1,0,0,1-3.36-1.74A49.18,49.18,0,0,1,822,103,109,109,0,0,1,811.6,92.2a111.67,111.67,0,0,1-8.94-12,54.66,54.66,0,0,1-6-13.72,100.39,100.39,0,0,1-4.58-29.55A56.06,56.06,0,0,1,793.93,22a22.63,22.63,0,0,1,3.1-6.82,10.16,10.16,0,0,1,6-4.32Z"/></g></g></g></g></g></g></g><g id="Grupo_223" data-name="Grupo 223" class="cls-29"><g id="Grupo_222" data-name="Grupo 222"><g class="cls-33"><g id="Grupo_221" data-name="Grupo 221"><g id="Grupo_220" data-name="Grupo 220"><g class="cls-33"><g id="Grupo_219" data-name="Grupo 219"><path id="Caminho_1397" data-name="Caminho 1397" class="cls-32" d="M931.16,68.08a9.87,9.87,0,0,0-4.88-5.31,21.91,21.91,0,0,0-7-2.19,54,54,0,0,0-14.81.12A98.18,98.18,0,0,0,876,68.79c-2.24,1-4.5,2.13-6.6,3.36a39.64,39.64,0,0,0-5.94,4.09,112.45,112.45,0,0,0-10.8,10.13,109.35,109.35,0,0,0-9.46,11.38,46.64,46.64,0,0,0-3.78,6.14,17.53,17.53,0,0,0-1.2,3.11,3.58,3.58,0,0,0,0,2.15,2.64,2.64,0,0,0,.58.41c.51.2,1,.45,1.52.64,1.1.4,2.25.75,3.42,1.08,2.35.64,4.76,1.17,7.2,1.63a115.4,115.4,0,0,0,14.71,1.8,62,62,0,0,0,28.73-4.15,79.92,79.92,0,0,0,24.19-16.85,60.93,60.93,0,0,0,9.25-11.6,30,30,0,0,0,3.06-6.75,13.47,13.47,0,0,0,.36-7.31l.22-.06a13.75,13.75,0,0,1-.13,7.5,30.54,30.54,0,0,1-2.89,7,61.48,61.48,0,0,1-9,12.05,81,81,0,0,1-24.29,17.63,62.28,62.28,0,0,1-29.58,4.61,119.64,119.64,0,0,1-15-1.73c-2.48-.45-4.94-1-7.38-1.63a37.49,37.49,0,0,1-3.6-1.12,6.26,6.26,0,0,1-3.28-2,5.36,5.36,0,0,1-.17-3.84,19.63,19.63,0,0,1,1.38-3.55,49.46,49.46,0,0,1,4-6.41,109.37,109.37,0,0,1,9.73-11.54,114.08,114.08,0,0,1,11.08-10.24,53.63,53.63,0,0,1,13.07-7.52,99,99,0,0,1,29.08-7.67,55.06,55.06,0,0,1,15.06.38,22,22,0,0,1,7.12,2.48A10.29,10.29,0,0,1,931.44,68Z"/></g></g></g></g></g></g></g><g id="Grupo_228" data-name="Grupo 228" class="cls-29"><g id="Grupo_227" data-name="Grupo 227"><g class="cls-34"><g id="Grupo_226" data-name="Grupo 226"><g id="Grupo_225" data-name="Grupo 225"><g class="cls-34"><g id="Grupo_224" data-name="Grupo 224"><path id="Caminho_1398" data-name="Caminho 1398" class="cls-32" d="M737.52,148.66a9.72,9.72,0,0,0,4.77,5.28,22.38,22.38,0,0,0,6.91,2.28,56.15,56.15,0,0,0,14.65.34,100.34,100.34,0,0,0,28.51-6.8c2.28-.9,4.5-1.88,6.69-3a38.17,38.17,0,0,0,6.1-3.68,117.47,117.47,0,0,0,21.15-20.17,46.11,46.11,0,0,0,4-5.86,15.52,15.52,0,0,0,1.34-3,3.05,3.05,0,0,0,.11-2,2.58,2.58,0,0,0-.57-.41c-.51-.21-.9-.46-1.5-.66-1.09-.42-2.22-.79-3.38-1.14-2.3-.69-4.68-1.27-7.06-1.8a120.49,120.49,0,0,0-14.5-2.18,65.07,65.07,0,0,0-28.62,2.88,79.41,79.41,0,0,0-24.79,15.29,59.51,59.51,0,0,0-9.83,10.89,28.79,28.79,0,0,0-3.37,6.49,12.57,12.57,0,0,0-.63,7.2l-.22.06a12.88,12.88,0,0,1,.41-7.4,29.37,29.37,0,0,1,3.21-6.74,59.83,59.83,0,0,1,9.62-11.38,80.64,80.64,0,0,1,25-16.08,64.84,64.84,0,0,1,29.43-3.29,120.76,120.76,0,0,1,14.77,2.12c2.44.52,4.86,1.08,7.25,1.8,1.2.34,2.38.73,3.6,1.17a6.55,6.55,0,0,1,3.23,2,5,5,0,0,1,.07,3.8,17.43,17.43,0,0,1-1.55,3.44,48.05,48.05,0,0,1-4.28,6.13,118.54,118.54,0,0,1-21.69,20.41A55.57,55.57,0,0,1,793,151.4,101.93,101.93,0,0,1,764,157.7a57,57,0,0,1-14.87-.84,22.7,22.7,0,0,1-7-2.58,10,10,0,0,1-4.75-5.62Z"/></g></g></g></g></g></g></g><g id="Grupo_233" data-name="Grupo 233" class="cls-29"><g id="Grupo_232" data-name="Grupo 232"><g class="cls-35"><g id="Grupo_231" data-name="Grupo 231"><g id="Grupo_230" data-name="Grupo 230"><g class="cls-35"><g id="Grupo_229" data-name="Grupo 229"><path id="Caminho_1399" data-name="Caminho 1399" class="cls-32" d="M863.87,211.11a9.69,9.69,0,0,0,5.72-4.24,22.51,22.51,0,0,0,2.94-6.65,56.13,56.13,0,0,0,1.74-14.54,100.77,100.77,0,0,0-4-29c-.68-2.34-1.45-4.66-2.33-6.93a38.07,38.07,0,0,0-3.08-6.44,116.67,116.67,0,0,0-18-23,45.88,45.88,0,0,0-5.45-4.58,16.31,16.31,0,0,0-2.85-1.61,3.12,3.12,0,0,0-2-.31,3,3,0,0,0-.46.54c-.26.49-.55.9-.8,1.43-.52,1-1,2.13-1.45,3.25-.9,2.23-1.72,4.5-2.46,6.87a119.68,119.68,0,0,0-3.6,14.21,65.06,65.06,0,0,0,.12,28.79A79.52,79.52,0,0,0,840.75,195a59.68,59.68,0,0,0,9.9,10.8,29,29,0,0,0,6.13,4,12.58,12.58,0,0,0,7.1,1.33v.22a12.93,12.93,0,0,1-7.33-1.11,29.5,29.5,0,0,1-6.4-3.85,60.32,60.32,0,0,1-10.4-10.66,80.66,80.66,0,0,1-13.62-26.39,65,65,0,0,1-.45-29.61,122.54,122.54,0,0,1,3.53-14.5c.75-2.38,1.55-4.73,2.47-7,.46-1.16,1-2.3,1.52-3.42a6.42,6.42,0,0,1,2.32-3,5,5,0,0,1,3.78.3,17.66,17.66,0,0,1,3.28,1.86,48.74,48.74,0,0,1,5.69,4.85A118.25,118.25,0,0,1,866.5,142.3a55.93,55.93,0,0,1,5.4,13.89,101.81,101.81,0,0,1,3.52,29.53,57.39,57.39,0,0,1-2.27,14.73,22.82,22.82,0,0,1-3.24,6.72,10,10,0,0,1-6,4.18Z"/></g></g></g></g></g></g></g><path id="Caminho_1400" data-name="Caminho 1400" class="cls-3" d="M313.66,176.31v23.91h-9V179a7.72,7.72,0,0,0-6.48-8.79,7.58,7.58,0,0,0-2.18,0,32.48,32.48,0,0,0-9,1.18,19.7,19.7,0,0,1,.63,5v24h-9.12v-21.5a7.53,7.53,0,0,0-6.19-8.66,7.87,7.87,0,0,0-2.47,0,59.2,59.2,0,0,0-8.41.55v29.57h-9.05V163.81a71.83,71.83,0,0,1,8.49-1.26,93.15,93.15,0,0,1,10.94-.7,18.87,18.87,0,0,1,10.39,2.44,45.14,45.14,0,0,1,15.8-2.44c10.46,0,15.73,4.8,15.73,14.48m48.06,23.12a88.09,88.09,0,0,1-9.84,1.33c-4.32.4-8.17.63-11.56.63-9.75,0-15.65-4.5-15.65-14.48V163h9.12V184.8c0,5.9,2.83,8.81,8.49,8.81a78.75,78.75,0,0,0,10.3-.71V163h9.13Zm48.76-23.12v23.91h-9.05V179a8.09,8.09,0,0,0-7.34-8.79,8.8,8.8,0,0,0-1.15,0,100,100,0,0,0-10.38.63v29.49h-9V163.65a114.17,114.17,0,0,1,21.36-1.8,14.12,14.12,0,0,1,15.5,12.56,13.7,13.7,0,0,1,.07,1.92m15.81-31.61a6,6,0,0,1,6.05,5.85v.2a6.06,6.06,0,1,1-6.05-6.05h0m4.56,55.52h-9V163h9.08Zm41.69-29.49a58,58,0,0,0-10.8-1.57,11.93,11.93,0,0,0-13.08,10.65,12.53,12.53,0,0,0-.05,1.62,11.59,11.59,0,0,0,11.09,12.06,11.81,11.81,0,0,0,1.33,0,48.74,48.74,0,0,0,11.64-1.72l1.26,7.31a41.67,41.67,0,0,1-13.49,2.37,20.84,20.84,0,0,1-15-5.51,19.19,19.19,0,0,1-5.82-14.55A18.62,18.62,0,0,1,445.38,167a21.69,21.69,0,0,1,15.42-5.4,40.26,40.26,0,0,1,12.89,2ZM491.69,156h-8.88l6-11.87h12.11Zm.24,44.28h-9V163h9Zm51-18.8a19.19,19.19,0,0,1-5,13.84,17,17,0,0,1-13,5.36,105,105,0,0,1-12-.63v18.4H503.8V163.65a126.41,126.41,0,0,1,20.37-1.8A17.84,17.84,0,0,1,543,178.69a16.88,16.88,0,0,1-.07,2.75m-8.88.23c0-7.46-3.47-12.19-11.1-12.19a84.64,84.64,0,0,0-10.06.63v22.1a62.84,62.84,0,0,0,10.79.79,10.43,10.43,0,0,0,10.46-10.42c0-.31,0-.62,0-.93m22.65-37a6,6,0,0,1,6.06,5.85v.2a6.06,6.06,0,1,1-6.06-6h0m4.56,55.52h-9V163h9.1Zm44.68-33.34a19.08,19.08,0,0,1,5.74,14.47A19.51,19.51,0,0,1,605.94,196a23.11,23.11,0,0,1-30.12,0,19.51,19.51,0,0,1-5.74-14.71,19,19,0,0,1,5.74-14.47,23.38,23.38,0,0,1,30.12,0m-3.46,14.47a11.65,11.65,0,0,0-23.29,0v0a11.65,11.65,0,0,0,23.29.92c0-.31,0-.61,0-.92"/><path id="Caminho_1401" data-name="Caminho 1401" class="cls-3" d="M1091.72,288.26c-12-12-42.4,72.6-56.67,66.89-5-2-.37-23.8-.13-27.89.9-14.92,2.33-28.94,4.62-43.66,1.53-9.78,6-26.84.48-35.56a14.6,14.6,0,0,0-13.42-6.42c-4.2,1.33-5.47,7.85-8.61,10.46a59,59,0,0,0-31-14.24,39.3,39.3,0,0,0-18.19-3.53A44.2,44.2,0,0,0,949,246.16a101.79,101.79,0,0,0-23.39,36.37c-2.89,7.57-3.05,13.42-10.12,18.25a30.13,30.13,0,0,1-17.79,5.4,98.77,98.77,0,0,0-4.93-44.75c-5.39-12.25-22.44-20.44-31.65-7.79-13.14,18-6.79,51.64,10.55,64.2,8.26,6,5.4,8.63,2.38,17.68a140.13,140.13,0,0,1-13.82,31.59c-18.48,29-23.75-13.09-26.45-27.89a448.7,448.7,0,0,1-6.67-58.72c-.5-10.14.82-28.34-9.83-34a28.4,28.4,0,0,0-26.71,2.23c-8.47,7.9.9,24.42-1.5,34.74a37.73,37.73,0,0,1-21,21.18c-8.22,3.4-7.35,2.17-8.09-5.32a119.63,119.63,0,0,0-5-22,65,65,0,0,0-25.09-38.19c-31.64-25.47-53.5,23.75-57.48,49.52a58.71,58.71,0,0,1-6.36,24c-3.67,5.9-7.52,11.69-11.13,17.6a99.5,99.5,0,0,1-11.2,17.22c-7.87,10.72-22.23,32.32-36,16.65a54,54,0,0,1-9.07-22.33,201.38,201.38,0,0,1-5.55-34.49c-.62-18.08-3-43.64,20.31-45,5.74-.33,10-.3,12.48,6,2.35,6.13-3.25,11.26-2.26,17,1.44,8.47,10.51,8.26,14.66,2.28,12.32-17.81-3.51-40.4-22.37-41.59A79,79,0,0,0,591,247.62a59.72,59.72,0,0,0-27.13,15.6,70.83,70.83,0,0,0-15.23,30.13,93.18,93.18,0,0,1-4.89,25.45c-3.83,8.3-16.45,32.74-25.64,35.4-7.69,2.22-5.06-6.76-4.6-12.59a481,481,0,0,1,4.1-50.15,182.06,182.06,0,0,0,3.79-26.09,48.87,48.87,0,0,0,0-14.39,15.64,15.64,0,0,0-13-9.45c-6.1.6-6.59,7.11-10.79,10.59a83.41,83.41,0,0,0-40-17.55c-16.9-4.25-31.71,13.22-40.27,25.45-11.43,16.36-12.82,34.76-21.4,51.65-2.94,5.77-14.47,32.83-22.6,32.85-12,0-5.34-75.57-6.79-84.28A36.59,36.59,0,0,0,341,230.15c-21.28-5.86-29.25,9.44-43.18,21.2-8.1-4.06-16.44-28.72-28.21-19.79-7.71,5.87-9.66,22.31-10.8,31.15a231.4,231.4,0,0,1-3.18,26.5,50.66,50.66,0,0,1-7.33,14c-6.41,11-12,22.33-18.6,33.12-6.8,11.11-12.6,26-23.2,34.13-16.66,12.72-23.69-15.15-27-26.35a255.68,255.68,0,0,1-12.28-54.7,58.49,58.49,0,0,1,1.13-14.76c1.89-4.24,3.88-3.71,7.8-5.51A99.06,99.06,0,0,0,203.32,253c12.16-11.6,19.11-27.37,4.05-40.09a46.1,46.1,0,0,0-31-8.55,32.84,32.84,0,0,0-26.09,20.46,88.45,88.45,0,0,0-11.57-1.39,88.49,88.49,0,0,0-17.25-87.6c-31.83-36-61.67,18-79.85,39.79-4-10-3.53-20.69-9.42-30.13a67.8,67.8,0,0,0-13.29-14.89A11.77,11.77,0,0,0,.83,138.72,90.55,90.55,0,0,0,.7,161.63c.9,34.07.2,68,2.14,102.15A818.7,818.7,0,0,0,16,373.38c1.8,9.3.74,31,16.41,30.13,12.94-.72,11.74-24.73,13-33.35,4.84-31.68.61-64.22-.9-96C43.61,255.6,43.85,237,43,218.4c-.65-14.39,8.1-24.18,14.4-36.88,7.63-15.5,37.09-58.69,47.6-22,4.91,17.09,1,37.46-2.9,54.38-2.7,11.89-11.78,12.7-21,19.63-12.69,9.54-24.14,26.69-21.68,43.3,1.35,9.12,8.81,19.68,18.31,19.56a48.58,48.58,0,0,0,35.56-18.57,119.41,119.41,0,0,0,21.87-43.6,82.52,82.52,0,0,1,10.29,1,188.85,188.85,0,0,0-11.7,83.48c2,24.45,9.68,59.07,34.33,70.51A48.77,48.77,0,0,0,223,383c13-12,19-32.76,27.53-47.91-2.7,18.41-5.7,37.49,14.76,46.44,3.24-4.87,7.6-1.33,12.86-4.16a17.36,17.36,0,0,0,7.57-12.11,493.35,493.35,0,0,0,8.37-54.49,105.71,105.71,0,0,1,4.12-25.28,126.88,126.88,0,0,1,11.19-21.74c4.25-6.75,20.17-30.71,24.76-14.67s.95,38.38.38,54.88a165.69,165.69,0,0,0,5.05,50.81c3.6,12.43,12.12,24,26.82,21,14.1-2.92,23.61-20.13,30.3-31.44,2,20.9,17.78,52.18,43.43,46.33a48.82,48.82,0,0,0,24.58-18c2.22-2.7,14.83-25.37,17-24.83a179.36,179.36,0,0,1,6.06,20.93,21.52,21.52,0,0,0,20.69,14.17c19.63-2.21,32-29.27,40.71-44.4A70.76,70.76,0,0,0,584,390.78c25.19,12.26,53.22-6.15,67.61-26.67a154,154,0,0,0,15.14-22.33c.9,0,3-6.2,3.4-7.08A100.91,100.91,0,0,0,691.7,384c10.29,12.11,30.95,21.36,45.45,12.29,17.81-11.13,21.83-35.51,24-54.66.3-2.61-.66-11.61,1-13.84,1.32-1.8,6.49-2.16,8.43-3a56.55,56.55,0,0,0,21.36-17.27,407.53,407.53,0,0,0,13,64.55c5,16.2,10.8,28.48,27.36,33.38s24.41-5.14,34.32-17.48a144,144,0,0,0,28-61.69,29.67,29.67,0,0,0,22.79-4.79c-2.53,24.29,2.83,65,33.57,69.62,12.68,1.92,23.78-6.84,31.73-15.7,2.33-2.59,17.42-28.05,19.38-27.56a110.68,110.68,0,0,1,4.09,16.54,33.36,33.36,0,0,0,10.36,15.2c14.32,10.22,28.86-4.34,37-15.51,9.19-12.66,16.57-26.71,24.65-40.07,3.23-5.36,20.6-28.74,13.59-35.74M175.59,230.36c3.6-7.2,2.19-11.63,12.77-10.51,6.13.66,9.13,2,8,7.42-1.22,5.9-19.91,24.55-26.09,23.52a90.21,90.21,0,0,1,5.3-20.43M87.72,266.24a56.09,56.09,0,0,1-9.33,12c-3.76,3.35-3.11,5.67-6.3-.3-4.39-8.18,1-21.77,6.9-27.75,2.26-2.32,18.48-13.63,17.91-11.35a93.7,93.7,0,0,1-9.16,27.39m399.69,15A159.09,159.09,0,0,1,464,347.59c-4.33,7.79-12.23,24-23.64,21.92s-10-18.45-9.41-26.79a174.14,174.14,0,0,1,20.12-71.81c5.76-10,14.16-22.34,26.91-15.3,9.18,5.07,10.18,16.2,9.42,25.62m239.92-12.1a46.79,46.79,0,0,1,2.27-9.85c8.58,8.59,20.36,36.13,16.27,48.44-16.48,2.36-20.56-28.47-18.54-38.6M743.26,360c-2.13,8.9-7.2,23-18.53,22.09-11.78-.9-18.24-15.21-20.86-24.88a109.78,109.78,0,0,1,2.3-68.75,68.56,68.56,0,0,0,11.89,23.13A48.68,48.68,0,0,0,732.45,323c2.51,1.33,11.7,2.54,12.95,3.83,5.21,5.3-.58,26.74-2.18,33.14m138.12-60.91c-3.22,4.84-7.28-9.16-7.51-10.65-.6-3.9-1.09-14.32,2.45-17.09,6.18-4.89,4.61,4.29,4.94,8.73a71.41,71.41,0,0,1,.12,19m126.4-17.79a159.09,159.09,0,0,1-23.39,66.34c-4.33,7.8-12.22,24-23.64,21.92s-10-18.44-9.41-26.79A174.14,174.14,0,0,1,971.42,271c5.76-10,14.16-22.34,26.92-15.29,9.17,5.06,10.19,16.19,9.42,25.62"/><path id="Caminho_1402" data-name="Caminho 1402" class="cls-36" d="M655.66,488.43h-1.18a61.4,61.4,0,0,0-8,.23,37.86,37.86,0,0,0-6.37.7,23,23,0,0,1-3,.59,2.18,2.18,0,0,1-2.88-1.1,1.07,1.07,0,0,1-.07-.19,15.23,15.23,0,0,0-5.08-5.17c-1.17-.58-2.35-.9-3.53-1.53a9.37,9.37,0,0,0-4.36-.82c-.83.12-1.8-.11-2.6,0a23.94,23.94,0,0,0-5.78.7,46.53,46.53,0,0,0-9.32,3.3c-4.13,2.1-8.38,4-12.51,6.29a8,8,0,0,1-2.24,1.07,122.74,122.74,0,0,1-15.8,5.87l-5.19,1.05a17.7,17.7,0,0,1-5,.71,34.88,34.88,0,0,0-3.54.24c-.24.11-.46,0-.71,0l-6.37-1.8a12.42,12.42,0,0,1-5.78-3.29,8.13,8.13,0,0,1-2.48-5.87,3.14,3.14,0,0,0-.83-2.12c-.9-1.18-2.24-.82-2.7.59a5.82,5.82,0,0,0,.36,3.75,23.1,23.1,0,0,0,4.13,6.46,13.88,13.88,0,0,0,5.07,3.6l1.8.94a20.27,20.27,0,0,0,5.31,2l1.89.24a29.87,29.87,0,0,0,7.9.24l1.8-.47a12.08,12.08,0,0,0,4.13-.58l14.39-4.71c1.53-.47,2.95-1.53,4.5-2.11,4-1.42,7.9-3.4,11.91-5.06,1.8-.82,3.66-1.29,5.55-2.11.12,0,.35-.12.47-.12a23,23,0,0,1,6.84-2.1,6.82,6.82,0,0,0,2.69-.36,5.35,5.35,0,0,1,3.07,0,6.72,6.72,0,0,0,3.42.11c.23-.11.59.12.83.25.83.23,1.54.81,2.36,1.05a3.67,3.67,0,0,1,1.79,1.53c.6.82.48,1.18-.46,1.64a45.83,45.83,0,0,0-7.55,3.6,12.18,12.18,0,0,0-4.71,7.64,1.44,1.44,0,0,0-.12.71,10.37,10.37,0,0,0,3.18,5.88,2.51,2.51,0,0,0,.95.58,10.7,10.7,0,0,0,5.78,0,5.08,5.08,0,0,0,3.07-1.53,13.75,13.75,0,0,1,2-1.8,11.53,11.53,0,0,0,3.18-5.29,16.78,16.78,0,0,0,.47-7.29c-.12-1.05,0-1.4,1.06-1.64h.71c1.18-.24,2.36,0,3.54-.35a19.33,19.33,0,0,1,2.47-.71c2.25-.24,4.5-.35,6.72-.47l4.72-.34a1.34,1.34,0,0,0,1.42-1.06,2,2,0,0,0-1.3-1.8m-24.89,11c-.36.9-.48,1.89-.83,2.82a7.2,7.2,0,0,1-4,4.5,9.61,9.61,0,0,1-3.19.48c-1.65,0-1.8-.25-2.12-2.24a3.58,3.58,0,0,1,.36-1.88,11.8,11.8,0,0,1,4.83-5.06c1.41-.9,3.19-1.41,4.72-2.35a.44.44,0,0,1,.35-.12c.36-.11.47.12.47.36-.24,1.17-.24,2.35-.59,3.52M373.41,447.84a23.2,23.2,0,0,1-1.8,2.82,13.91,13.91,0,0,1-1.8,1.88c-.31.32-.83.11-1,.52-.84,1.37-1.36,1.68-2.09,3a1,1,0,0,1-.41.52,26.11,26.11,0,0,0-2.2,3.66c-.9,1.25-2.08,4-2.92,5.22-1.46,2-3.24,5.22-4,4.6-1.14-1-.41-5.32-.21-7.1a92.86,92.86,0,0,0,.84-12l-.31-5.75a9.18,9.18,0,0,0-1.8-5.12,8.38,8.38,0,0,0-9.72-1.47,19.19,19.19,0,0,0-7.52,7.74,39.16,39.16,0,0,0-4.12,9.45,22.49,22.49,0,0,1-1.36,3.34,1,1,0,0,1-.11-.73l-.2-3.6c-.32-3.23-.73-6.47-1.16-9.6a3.81,3.81,0,0,0-1.15-2.7l-2.4-2.3a5.24,5.24,0,0,0-5.23-.41.31.31,0,0,1-.2.11,14.89,14.89,0,0,0-4.19,4.91,50.15,50.15,0,0,0-2.19,4.7,5.2,5.2,0,0,1-1.15,2.08,16.48,16.48,0,0,0,.11-2,20.72,20.72,0,0,0,0-5.1,1.33,1.33,0,0,1,.1-.63,3.78,3.78,0,0,0,0-1.89,9.69,9.69,0,0,1-.31-2.4,2.3,2.3,0,0,0-.42-1.15,5.2,5.2,0,0,0-4.39-2.92l-1.36-.21c-2.09-.22-2.2,10.45-2.4,12l-.63,6.74a11.8,11.8,0,0,0-1.25,1.8c-.1.21-.2.52-.42.62a47.16,47.16,0,0,0-4.28,7.42,14.64,14.64,0,0,0-1.36,2.2v.1a9.62,9.62,0,0,1-1,1.68c-2,2.92-6.3,12.85-10.14,9.81a9.55,9.55,0,0,1-3.13-5.32,33.6,33.6,0,0,0-.9-3.45c-1.15-3-1.46-6.3-2.4-9.4a.57.57,0,0,1-.11-.42,6.93,6.93,0,0,0-.52-3.87v-.42a25,25,0,0,0,.31-4,1.2,1.2,0,0,1,.9-1.14,6.32,6.32,0,0,0,1.57-.53c1.8-.73,3.23-1.88,4.91-2.61a7.37,7.37,0,0,0,2.61-2.09l1-1.15a6,6,0,0,0,.84-8.44,6.46,6.46,0,0,0-1.15-1.07c-.63-.52-1.36-.9-2.1-1.47a1.17,1.17,0,0,0-.84-.11,5.36,5.36,0,0,1-1.8-.41,10.21,10.21,0,0,0-6.37.21,7.92,7.92,0,0,0-3.55,3.13,38.27,38.27,0,0,0-5.3,16.66c0,.1-.09.16-.13.27a1.12,1.12,0,0,1-.42.52c-.52.31-1.36,2.51-1.8,3a36,36,0,0,1-1.88,3.45,10.4,10.4,0,0,1-1.15,2c-.62.31-1.46,2.51-1.8,2.92-.73,1-1.36,2.3-2,3.35a17.26,17.26,0,0,1-1.46,2.4c-.73.9-1.36,2.09-2.3,3.35l-1.15,1.46c-3.66,4.6-5.75,4.18-6.17-1.25l-.31-4.07-.32-5.55c-.11-1.15,0-3.86,0-5l.52-9.71c.32-3.56.42-6.58.9-10.13,0-.52.32-2.51.52-4.08s.53-2.7.53-3.14a1.38,1.38,0,0,1,.72-1.26,55,55,0,0,0,6.37-3.55,6.38,6.38,0,0,1,3.6-1.46,4.11,4.11,0,0,0,3.45-1.67,1.31,1.31,0,0,0-.21-1.84,1.26,1.26,0,0,0-.52-.25,2.08,2.08,0,0,0-1.88.32,7.89,7.89,0,0,1-1.57.62,44.25,44.25,0,0,0-6.06,1.88c-.52.2-1,.52-1.67.73-.21.09-.53.09-.43-.32a30.88,30.88,0,0,0,.22-6.3v-.2a7.36,7.36,0,0,0-.32-4,3.22,3.22,0,0,0-1.35-2.09,8.09,8.09,0,0,0-3.45-1.26,2.7,2.7,0,0,0-3.12,2.2s0,.06,0,.1a.68.68,0,0,0-.1.42,27.58,27.58,0,0,0-1.26,4.8c-.73,3.76-1.46,7.32-2.4,10.87-.31.84-.31.9-1.36,1-2.09.42-.83.63-3,1.16a6.77,6.77,0,0,1-2.82.42c-1.26,0-2.41.21-3.56.21-.73-.11-.73.21-.42.84a4.62,4.62,0,0,0,1.36,1.46,6.58,6.58,0,0,0,3.76,1.56,8.21,8.21,0,0,0,2.61-.19c1-.22.83-.43,2-.43-.21,1.68-.42,4.29-.53,4.5-.41,2.5-.63,5.64-.9,8.15-.31,2.3-.52,4.08-.62,6.37-.2,2.61,0,5.4-.1,8.15a43.82,43.82,0,0,0,.31,6.48,16.1,16.1,0,0,0,8.67,14.64,9.5,9.5,0,0,0,11.28-4.71A87.84,87.84,0,0,0,269,464.24c.56-1,1.09-1.86,1.7-3,.09,1.89.35,3.79.5,5.68a13.51,13.51,0,0,0,.84,3.55c.83,2.19,1.79,4.38,2.82,6.58a11.18,11.18,0,0,0,7.94,6.3,10.32,10.32,0,0,0,5.33.62,9.4,9.4,0,0,0,4.8-1.25,14.72,14.72,0,0,0,6.3-7.62l1.05-2.1c.89-1.56,1.56-3.65,2.6-5.11a36,36,0,0,0,2-4.31v.43q-.31,3.45-.32,6.9a10.87,10.87,0,0,1-.1,1.8,8.68,8.68,0,0,0,.72,5.4c1.25,2.29,3.86.2,5.23,2.09a.83.83,0,0,0,1.16.15.88.88,0,0,0,.3-.46,3.17,3.17,0,0,0,.21-1.05c.2-.9.31-2,.62-3,.42-1.88.9-3.65,1.46-5.4a57.47,57.47,0,0,1,1.68-6.29,20.12,20.12,0,0,0,.52-2.3,14.3,14.3,0,0,1,.73-2.3,8.4,8.4,0,0,0,1-3.66,3.42,3.42,0,0,1,.31-.9l1.26-3.6a13.58,13.58,0,0,1,2.61-5,4.86,4.86,0,0,1,1.68-1.57c.31-.11.52,0,.62.43a5.6,5.6,0,0,1,.2,1.87c.21,3.86.32,7.63.43,11.48l.31,8.57c.11,1.88.21,3.76.21,5.75,0,.9.1,2.09.9,2.51.11,0,.21.21.31.31.52.9,1.8.84,2.7.9.21,0,.42.22.52.32.73.52,1.25.31,1.36-.73l.63-1.67a6.3,6.3,0,0,0,.73-1.47c1.15-3,1.88-6.06,2.92-9.09l.84-2.7a41.47,41.47,0,0,0,2-5.39c.31-.9,1.25-2.61,1.67-3.56l1.46-3.34a12.43,12.43,0,0,1,5-5.75c1.36-.62,2.29,1,2.4,2.92,0,1.37-.2,2.7-.31,4.18-.32,3-.73,6.17-1.15,9.2h.1a37.06,37.06,0,0,0-.2,9c.1,4.19,1.67,8.46,6.58,8.67,5.33.21,7-3.65,8.67-6.3l.32-.51a63.8,63.8,0,0,0,4-7.2c.63-1.47,1.15-2.29,1.88-3.76l1.14-2.4,1.88-3.6c.73-1.46.42-2.4,1.46-3.65a2.74,2.74,0,0,1,.31-.84c.11-.31.42-1.25.21-1.36-.32-.31-.52-.1-.73.11m-91-9.09a2.83,2.83,0,0,0,.32-1.25,1.45,1.45,0,0,1,1-1.45,5.72,5.72,0,0,1,4.18.41.8.8,0,0,1,.48,1l-.06.13-.84,1.15a29.47,29.47,0,0,1-5.23,5.12,1.75,1.75,0,0,1-1.35.52,25,25,0,0,1,1.45-5.64m247.4,9.09a23.2,23.2,0,0,1-1.8,2.82,13.91,13.91,0,0,1-1.8,1.88c-.31.32-.83.11-1,.53-.84,1.36-1.36,1.67-2.09,3a1,1,0,0,1-.41.52,26.11,26.11,0,0,0-2.2,3.66c-.9,1.25-2.08,4-2.92,5.22-1.46,2-3.24,5.23-4,4.61-1.15-1.05-.42-5.33-.2-7.11a94.53,94.53,0,0,0,.83-12l-.31-5.75A9.2,9.2,0,0,0,512,440a8.39,8.39,0,0,0-9.72-1.47,19.31,19.31,0,0,0-7.52,7.74,38.91,38.91,0,0,0-4.18,9.5,22.6,22.6,0,0,1-1.36,3.35,1,1,0,0,1-.11-.73l-.2-3.6c-.32-3.24-.73-6.48-1.16-9.61a3.84,3.84,0,0,0-1.15-2.7l-2.4-2.29a5.19,5.19,0,0,0-5.23-.41.35.35,0,0,1-.2.1,14.83,14.83,0,0,0-4.19,4.92,50,50,0,0,0-2.19,4.69,5.34,5.34,0,0,1-1.14,2.09,14.74,14.74,0,0,0,.1-2,20.8,20.8,0,0,0,0-5.11,1.53,1.53,0,0,1,.11-.63,3.74,3.74,0,0,0,0-1.88,9.24,9.24,0,0,1-.31-2.4,2.16,2.16,0,0,0-.43-1.15,5.2,5.2,0,0,0-4.39-2.93l-1.35-.2c-2.09-.22-2.2,10.44-2.41,12l-.41,4.4c-.5.9-1,1.71-1.57,2.49a15.25,15.25,0,0,1-1.88,1.8l-.9.63a9.12,9.12,0,0,1-3,1.14c-.42.11-.31-.22-.31-.74a49.52,49.52,0,0,0-2.51-11,9.56,9.56,0,0,0-3.13-4.81c-1.46-1.36-3.13-2.19-4.5-3.65a1.19,1.19,0,0,0-.73-.32,14,14,0,0,0-4.08,0,4.56,4.56,0,0,0-2.6,1.8c-.84,1.25-2.2,1.88-3.14,3.24a21.72,21.72,0,0,0-2.6,5.64c-.12.41-.19.84-.29,1.25l-.24.21-.31.42a21.55,21.55,0,0,1-1.36,2.61l-.21.32c-.31.3-.9,1.45-1.46,2.19a17.42,17.42,0,0,1-3.76,4.18,15.58,15.58,0,0,0-3-5.4c-5.12-6-16.41-1.8-13.69,6.79a9.32,9.32,0,0,0,5.33,5.75,11.1,11.1,0,0,0,4.18.84c.73,0,1.46-.1,2.2-.1.63,3.65-1.68,6.29-3.13,9.7a3.27,3.27,0,0,1-.9,1.15l-2.2,2.19a3.42,3.42,0,0,1-2.19.84c-1.16.2-1.88-.52-2.83-.9a3,3,0,0,1-1.8-2.1l-.21-.83c-.2-.63-.2-1.46-.73-2a5.72,5.72,0,0,1-1.25-2.82c-.42-2.1-.73-4.19-1.05-6.3a36.92,36.92,0,0,1-.52-4.7,15.89,15.89,0,0,0-.41-4.91,10.14,10.14,0,0,1-.32-3.55,11.89,11.89,0,0,0,.21-1.88,6.19,6.19,0,0,1-.11-1.36h.11v-2l.21-1.25a1.82,1.82,0,0,1,1-.94l.31-.21a28.4,28.4,0,0,0,6.8-5.4c1.35-1.45,2.51-3.13,3.86-4.59a4.63,4.63,0,0,0,.9-1.68,3.49,3.49,0,0,1,.62-1.25,13.88,13.88,0,0,0,2.61-5.64c0-.1.11-.21.21-.41a24.3,24.3,0,0,0,1.88-5.54,17.92,17.92,0,0,0,.21-5.75,8.07,8.07,0,0,0-1.8-4.91,9.77,9.77,0,0,0-7.94-3.34.6.6,0,0,0-.42.11,13.67,13.67,0,0,0-4.8,3.13,38.72,38.72,0,0,0-7.42,11.39c-.63,1.8-1.57,3.34-2.09,5.11-.84,3-1.47,6.06-2.2,9.1a84.08,84.08,0,0,0-1.36,8.77c-.2,1.05-.2,1.15-1.25,1.36a7.67,7.67,0,0,1-4.59-.31c-.43-.1-.9-.42-1.26,0s.2.9.42,1.35l.11.11a9.25,9.25,0,0,0,5.53,2.7c.32,0,.63.11.63.42a14.68,14.68,0,0,1-.11,2.2,68.86,68.86,0,0,0,.63,9.3c.11,1.36.52,2.61.62,3.86a16.33,16.33,0,0,0,.73,4.39,6.13,6.13,0,0,1,.42,1.25,19.27,19.27,0,0,0,2,5.85,14.6,14.6,0,0,0,3.6,5.4,9.29,9.29,0,0,0,5.85,3.13,3.77,3.77,0,0,1,1.15.31,8.06,8.06,0,0,0,5.64.21c.21,0,.52-.11.73-.11a5.84,5.84,0,0,0,1.88-.73c1.25-.74,2.3-1.88,3.45-2.7a4.84,4.84,0,0,0,1.8-2.08l.52-1.25a29.94,29.94,0,0,0,3.76-9.72,22.52,22.52,0,0,1,.41-4.18,38.7,38.7,0,0,0,2.94-2.93c.8-1,1.39-1.8,1.79-2.43,0,.53-.06,1-.06,1.6a34.61,34.61,0,0,0,1.8,9.82,22.59,22.59,0,0,0,3.35,6.37,11.47,11.47,0,0,0,6.16,5.12l1.46.62a6,6,0,0,0,6.16-.62,11.58,11.58,0,0,0,4.5-5.64,54.39,54.39,0,0,0,2-8.05c.22-1.73.36-3.47.41-5.22,0-.43,1.47-.11,3.45-1.47l.72-.42a13.07,13.07,0,0,0,2.25-1.8l-.05.62c-.11,1.15,0,2.3-.21,3.45q-.31,3.45-.31,6.9a10.88,10.88,0,0,1-.11,1.8,8.64,8.64,0,0,0,.73,5.39c1.25,2.3,3.87.21,5.23,2.1a.83.83,0,0,0,1.16.14.8.8,0,0,0,.29-.46,3.06,3.06,0,0,0,.21-1c.21-.9.31-2,.62-3,.42-1.88.9-3.65,1.46-5.4a59.9,59.9,0,0,1,1.67-6.3,18,18,0,0,0,.52-2.29,14,14,0,0,1,.73-2.3,8.32,8.32,0,0,0,1-3.67,3.31,3.31,0,0,1,.31-.9l1.25-3.59a13.5,13.5,0,0,1,2.62-5,4.89,4.89,0,0,1,1.67-1.56c.32-.11.52,0,.63.42a5.91,5.91,0,0,1,.21,1.87c.21,3.87.31,7.63.42,11.49l.32,8.57c.1,1.88.2,3.76.2,5.74,0,.9.11,2.1.9,2.51.11,0,.21.22.32.32.52.9,1.8.84,2.7.9.21,0,.42.22.52.31.73.53,1.26.32,1.36-.72l.62-1.68a6.65,6.65,0,0,0,.73-1.46c1.15-3,1.88-6.06,2.92-9.09l.84-2.7a41,41,0,0,0,2-5.4c.32-.9,1.26-2.61,1.68-3.55l1.46-3.35a12.58,12.58,0,0,1,5-5.75c1.35-.62,2.3,1,2.4,2.93,0,1.37-.21,2.7-.32,4.18-.31,3-.73,6.16-1.15,9.2h.11a36.55,36.55,0,0,0-.21,9c.11,4.19,1.68,8.46,6.59,8.67,5.32.21,7-3.66,8.67-6.3l.31-.51a62.26,62.26,0,0,0,4-7.2c.62-1.47,1.15-2.3,1.88-3.76l1.15-2.4,1.88-3.6c.73-1.46.42-2.41,1.46-3.66a2.8,2.8,0,0,1,.32-.83c.1-.31.41-1.25.2-1.36-.31-.32-.52-.1-.73.11M413.75,462.06a4.72,4.72,0,0,1-3.13-2.82,3.48,3.48,0,0,1,2.51-4.19c2.4-.2,3.24,2.83,4,4.5,1.14,2.61-1.15,3.23-3.35,2.51m-11.17-25.49c.52-2.09.73-4.18,1.36-6.17l.31-1a33.8,33.8,0,0,0,1.67-6.16,28,28,0,0,1,1.25-2.93,40.85,40.85,0,0,1,1.8-5l.84-1.37a11.2,11.2,0,0,0,2-2.4,2.35,2.35,0,0,1,1.67-1,.94.94,0,0,1,1.15.63,9.6,9.6,0,0,1,.32,2.92,7.5,7.5,0,0,0-.11,1.57,21.14,21.14,0,0,1-1.56,8.35c-.32.63-.42,1.36-.73,2.09a29.87,29.87,0,0,1-4.08,7.32,54,54,0,0,1-5.75,6.06.61.61,0,0,1-.63.21,16.27,16.27,0,0,1,.52-3m42.74,10.87a12.61,12.61,0,0,1,.63-2.7,6.38,6.38,0,0,1,1.15,1.67c.63,1.26,1.26,2.52,1.8,3.77a21.2,21.2,0,0,1,1.67,7.19,2,2,0,0,1-.11.73,2.54,2.54,0,0,1-1.8-.52,6.8,6.8,0,0,1-2.51-3.23,15,15,0,0,1-1-3.66,8.44,8.44,0,0,1,.21-3.24m4.39,25.07c-.62,2.62-2.3,6.79-5.54,6.07a5.37,5.37,0,0,1-2.6-1.68,9.09,9.09,0,0,1-2.62-4.69L437.72,467a26.15,26.15,0,0,1,1.88-14.53c.11-.1.31.11.31.42a7,7,0,0,0,1.36,4,9.92,9.92,0,0,0,1.88,2.7,13,13,0,0,0,4.18,3,4.5,4.5,0,0,0,2.83.73c1.25-.2-.21,8.37-.42,9.2m98.84,6.89c7.11,5.64,13.79-3.45,16.62-8.77.1-.32.72-1.57,1.15-1.47.2.11.31,1.88.41,2.09.84,4.28,4,9.82,9.3,6.79a28.12,28.12,0,0,0,8-9.83l.31-.53c1-1.67,1.88-3.44,3-5.12.26-.36.45-.76.68-1.14.39,3,.71,6.19,1.2,9.2.32,2.29.53,4.69.73,7a3,3,0,0,0,1.36,2.4c.11,0,.22.11.32.21.82.42,1.67,1.15,2.69.9a4.39,4.39,0,0,0,1.25-.3c.53-.22.84.52,1.26.3h.1a2.32,2.32,0,0,0,1.8-1.25,17.09,17.09,0,0,0,1.36-4.07,4.2,4.2,0,0,0,.21-1.57,6.58,6.58,0,0,1-.21-2,7.83,7.83,0,0,1,.21-1.8c0-1.56.31-3,.41-4.59l.52-5.64a28.46,28.46,0,0,1,.9-4.5,11.43,11.43,0,0,0,.62-2.5,4.69,4.69,0,0,1,.53-1.8,3.53,3.53,0,0,0,.84-1.8,16.51,16.51,0,0,1,1.36-3.45,21.61,21.61,0,0,1,3.24-5.22c.73-.84,1.8-.63,2.61-.84.52.42,1.36.63,1.8,1.47a2.47,2.47,0,0,0,3,1.25,2.35,2.35,0,0,0,1.71-2.84,2,2,0,0,0-.15-.41,2.29,2.29,0,0,0-.62-.83,5.13,5.13,0,0,1-1.15-1.47,4.08,4.08,0,0,0-1.88-1.25,6.41,6.41,0,0,0-4,0,6.28,6.28,0,0,0-4,2.62,28,28,0,0,0-2.5,3.45,38.48,38.48,0,0,0-3.14,5.32,12.36,12.36,0,0,0-1.57,3.86c0,.11-.11.21-.11.32s-.2.42-.41.42-.21-.32-.21-.53a11.76,11.76,0,0,0-.21-1.87,15.35,15.35,0,0,0-1.46-5.23,4.48,4.48,0,0,0-1.57-1.88c-.1-.11-.31-.21-.41-.41a9.12,9.12,0,0,0-5.75-3.35h-.21a22.78,22.78,0,0,0-2.61.1,2.92,2.92,0,0,0-1.46,1.05,1,1,0,0,0-.21,1.25s.1,0,0,.21c-.41.62,0,1,.21,1.56a54.83,54.83,0,0,1,1.8,7.11c.36,1.8.61,3.6.9,5.35-.08.14-.16.25-.24.4s-.21.52-.41.62c-.63.32-1.67,2.41-2.1,3-.83,1.25-1.45,2.7-2.29,4-1,1.57-7.84,12.53-7.1,5.23.32-3,.42-6.17.63-9.2a23.38,23.38,0,0,1,.62-5.95c.62-2.4.62-4.81,1-7.2a1.84,1.84,0,0,0,0-1,3.49,3.49,0,0,1,.1-2.3c0-.2.11-.41-.1-.62a4.43,4.43,0,0,0-2.7-2.4c-1.46-.42-1.68-.32-2.5.84-.53.52-.73,1.35-1.36,1.88l-1.37-1.25a10.63,10.63,0,0,0-6.69-2.61,5.86,5.86,0,0,1-2-.43,4.62,4.62,0,0,0-5-.09,14.9,14.9,0,0,0-5.64,4.59,28.3,28.3,0,0,0-6,12c-1.67,8.25-3.13,18.49,4.5,24.44m4.5-17.33a35.24,35.24,0,0,1,2-7.2,24.38,24.38,0,0,1,6.06-11.07,2,2,0,0,1,1.47-.73c4.8.21,5.64,3.87,5.32,7.73a32.27,32.27,0,0,1-.63,4.59,39.91,39.91,0,0,1-2.82,7.94,21.68,21.68,0,0,1-1.36,2.62A43.55,43.55,0,0,1,559,473c-2.08,2.7-5.53,3.24-6.47-.72a33.53,33.53,0,0,1,.62-10.24"/></g></g></g></g></g></svg>